<svg
  width="80"
  height="80"
  viewBox="0 0 80 80"
  fill="none"
  xmlns="http://www.w3.org/2000/svg"
>
  <path
    d="M20.1667 73.3512L24.1667 55.8512L37.6667 59.8512C37.5 62.5179 37.0667 68.3512 36.6667 70.3512C36.1667 72.8512 32.6667 77.3512 31.6667 77.3512C30.8667 77.3512 28.3333 74.0179 27.1667 72.3512L23.1667 74.3512L20.1667 73.3512Z"
    fill="#FF8EA1"></path>
  <path
    d="M60.1667 73.3512L56.1667 55.8512L42.6667 59.8512C42.8333 62.5179 43.2667 68.3512 43.6667 70.3512C44.1667 72.8512 47.6667 77.3512 48.6667 77.3512C49.4667 77.3512 52 74.0179 53.1667 72.3512L57.1667 74.3512L60.1667 73.3512Z"
    fill="#FF8EA1"></path>
  <path
    d="M36.5924 36.8563C37.3735 37.6374 38.6398 37.6374 39.4208 36.8563L47.199 29.0782C47.9801 28.2971 49.2464 28.2971 50.0275 29.0782L51.4417 30.4924C52.2227 31.2734 52.2227 32.5398 51.4417 33.3208L39.4208 45.3416C38.6398 46.1227 37.3735 46.1227 36.5924 45.3416L28.8142 37.5634C28.0332 36.7824 28.0332 35.5161 28.8142 34.735L30.2285 33.3208C31.0095 32.5398 32.2758 32.5398 33.0569 33.3208L36.5924 36.8563Z"
    fill="#70C9F3"></path>
  <path
    d="M39.4208 36.8563L40.4815 37.917L48.2597 30.1388L47.199 29.0782L46.1384 28.0175L38.3602 35.7957L39.4208 36.8563ZM50.0275 29.0782L48.9668 30.1388L50.381 31.553L51.4417 30.4924L52.5023 29.4317L51.0881 28.0175L50.0275 29.0782ZM51.4417 33.3208L50.381 32.2601L38.3602 44.281L39.4208 45.3416L40.4815 46.4023L52.5023 34.3815L51.4417 33.3208ZM36.5924 45.3416L37.6531 44.281L29.8749 36.5028L28.8142 37.5634L27.7536 38.6241L35.5318 46.4023L36.5924 45.3416ZM28.8142 34.735L29.8749 35.7957L31.2891 34.3815L30.2285 33.3208L29.1678 32.2601L27.7536 33.6744L28.8142 34.735ZM33.0569 33.3208L31.9962 34.3815L35.5318 37.917L36.5924 36.8563L37.6531 35.7957L34.1175 32.2601L33.0569 33.3208ZM30.2285 33.3208L31.2891 34.3815C31.4844 34.1862 31.801 34.1862 31.9962 34.3815L33.0569 33.3208L34.1175 32.2601C32.7507 30.8933 30.5346 30.8933 29.1678 32.2601L30.2285 33.3208ZM28.8142 37.5634L29.8749 36.5028C29.6796 36.3075 29.6796 35.9909 29.8749 35.7957L28.8142 34.735L27.7536 33.6744C26.3868 35.0412 26.3868 37.2573 27.7536 38.6241L28.8142 37.5634ZM39.4208 45.3416L38.3602 44.281C38.1649 44.4762 37.8483 44.4762 37.6531 44.281L36.5924 45.3416L35.5318 46.4023C36.8986 47.7691 39.1147 47.7691 40.4815 46.4023L39.4208 45.3416ZM51.4417 30.4924L50.381 31.553C50.5763 31.7483 50.5763 32.0649 50.381 32.2601L51.4417 33.3208L52.5023 34.3815C53.8692 33.0146 53.8692 30.7986 52.5023 29.4317L51.4417 30.4924ZM47.199 29.0782L48.2597 30.1388C48.4549 29.9436 48.7715 29.9436 48.9668 30.1388L50.0275 29.0782L51.0881 28.0175C49.7213 26.6507 47.5052 26.6507 46.1384 28.0175L47.199 29.0782ZM39.4208 36.8563L38.3602 35.7957C38.1649 35.9909 37.8483 35.9909 37.6531 35.7957L36.5924 36.8563L35.5318 37.917C36.8986 39.2838 39.1147 39.2838 40.4815 37.917L39.4208 36.8563Z"
    fill="#392E6B"></path>
  <path
    d="M40 6C45.2032 6 49.7872 8.64961 52.4775 12.6729C55.0115 13.3135 57.4111 14.624 59.3936 16.6064C61.3757 18.5886 62.6854 20.9879 63.3262 23.5215C67.35 26.2117 70 30.7963 70 36C70 41.2035 67.3498 45.7873 63.3262 48.4775C62.6855 51.0114 61.3759 53.4112 59.3936 55.3936C57.4112 57.3759 55.0114 58.6855 52.4775 59.3262C49.7873 63.3498 45.2035 66 40 66C34.7963 66 30.2117 63.35 27.5215 59.3262C24.9879 58.6854 22.5886 57.3757 20.6064 55.3936C18.624 53.4111 17.3135 51.0115 16.6729 48.4775C12.6496 45.7872 10 41.2032 10 36C10 30.7966 12.6494 26.2118 16.6729 23.5215C17.3136 20.9879 18.6243 18.5886 20.6064 16.6064C22.5886 14.6243 24.9879 13.3136 27.5215 12.6729C30.2118 8.64935 34.7966 6 40 6ZM40 18C30.0589 18 22 26.0589 22 36C22 45.9411 30.0589 54 40 54C49.9411 54 58 45.9411 58 36C58 26.0589 49.9411 18 40 18Z"
    fill="#FFE084"></path>
  <path
    d="M52.4775 12.6729L51.2306 13.5067L51.551 13.9858L52.1099 14.1271L52.4775 12.6729ZM59.3936 16.6064L60.4542 15.5458L60.4542 15.5458L59.3936 16.6064ZM63.3262 23.5215L61.872 23.8893L62.0133 24.4481L62.4925 24.7685L63.3262 23.5215ZM70 36H71.5V36H70ZM63.3262 48.4775L62.4924 47.2306L62.0132 47.551L61.8719 48.1099L63.3262 48.4775ZM59.3936 55.3936L60.4542 56.4542V56.4542L59.3936 55.3936ZM52.4775 59.3262L52.1099 57.8719L51.551 58.0132L51.2306 58.4924L52.4775 59.3262ZM27.5215 59.3262L28.7685 58.4925L28.4481 58.0133L27.8893 57.872L27.5215 59.3262ZM20.6064 55.3936L19.5458 56.4542H19.5458L20.6064 55.3936ZM16.6729 48.4775L18.1271 48.1099L17.9858 47.551L17.5067 47.2306L16.6729 48.4775ZM10 36H8.5V36H10ZM16.6729 23.5215L17.5066 24.7684L17.9858 24.448L18.1271 23.8892L16.6729 23.5215ZM20.6064 16.6064L19.5458 15.5458L19.5458 15.5458L20.6064 16.6064ZM27.5215 12.6729L27.8892 14.1271L28.448 13.9858L28.7684 13.5066L27.5215 12.6729ZM40 18V16.5V16.5V18ZM22 36H20.5V36L22 36ZM40 54V55.5V55.5V54ZM58 36L59.5 36V36H58ZM40 6V7.5C44.6814 7.5 48.8067 9.88185 51.2306 13.5067L52.4775 12.6729L53.7244 11.839C50.7677 7.41736 45.7251 4.5 40 4.5V6ZM52.4775 12.6729L52.1099 14.1271C54.3893 14.7034 56.5473 15.8815 58.3329 17.6671L59.3936 16.6064L60.4542 15.5458C58.275 13.3666 55.6337 11.9236 52.8452 11.2186L52.4775 12.6729ZM59.3936 16.6064L58.3329 17.6671C60.118 19.4523 61.2955 21.61 61.872 23.8893L63.3262 23.5215L64.7804 23.1537C64.0753 20.3659 62.6333 17.7249 60.4542 15.5458L59.3936 16.6064ZM63.3262 23.5215L62.4925 24.7685C66.1178 27.1922 68.5 31.3182 68.5 36H70H71.5C71.5 30.2744 68.5823 25.2312 64.1599 22.2745L63.3262 23.5215ZM70 36H68.5C68.5 40.6815 66.1177 44.8067 62.4924 47.2306L63.3262 48.4775L64.1599 49.7245C68.5819 46.7678 71.5 41.7255 71.5 36H70ZM63.3262 48.4775L61.8719 48.1099C61.2956 50.3895 60.1182 52.5476 58.3329 54.3329L59.3936 55.3936L60.4542 56.4542C62.6336 54.2748 64.0755 51.6333 64.7804 48.8452L63.3262 48.4775ZM59.3936 55.3936L58.3329 54.3329C56.5476 56.1182 54.3895 57.2956 52.1099 57.8719L52.4775 59.3262L52.8452 60.7804C55.6333 60.0755 58.2748 58.6336 60.4542 56.4542L59.3936 55.3936ZM52.4775 59.3262L51.2306 58.4924C48.8067 62.1177 44.6815 64.5 40 64.5V66V67.5C45.7255 67.5 50.7678 64.5819 53.7245 60.1599L52.4775 59.3262ZM40 66V64.5C35.3182 64.5 31.1922 62.1178 28.7685 58.4925L27.5215 59.3262L26.2745 60.1599C29.2312 64.5823 34.2744 67.5 40 67.5V66ZM27.5215 59.3262L27.8893 57.872C25.61 57.2955 23.4523 56.118 21.6671 54.3329L20.6064 55.3936L19.5458 56.4542C21.7249 58.6333 24.3659 60.0753 27.1537 60.7804L27.5215 59.3262ZM20.6064 55.3936L21.6671 54.3329C19.8815 52.5473 18.7034 50.3893 18.1271 48.1099L16.6729 48.4775L15.2186 48.8452C15.9236 51.6337 17.3666 54.275 19.5458 56.4542L20.6064 55.3936ZM16.6729 48.4775L17.5067 47.2306C13.8819 44.8067 11.5 40.6814 11.5 36H10H8.5C8.5 41.7251 11.4174 46.7677 15.839 49.7244L16.6729 48.4775ZM10 36H11.5C11.5 31.3183 13.8817 27.1922 17.5066 24.7684L16.6729 23.5215L15.8391 22.2745C11.417 25.2314 8.5 30.2749 8.5 36H10ZM16.6729 23.5215L18.1271 23.8892C18.7034 21.6103 19.8816 19.4526 21.6671 17.6671L20.6064 16.6064L19.5458 15.5458C17.3669 17.7247 15.9237 20.3655 15.2186 23.1537L16.6729 23.5215ZM20.6064 16.6064L21.6671 17.6671C23.4526 15.8817 25.6103 14.7034 27.8892 14.1271L27.5215 12.6729L27.1537 11.2186C24.3655 11.9237 21.7247 13.3669 19.5458 15.5458L20.6064 16.6064ZM27.5215 12.6729L28.7684 13.5066C31.1922 9.88172 35.3183 7.5 40 7.5V6V4.5C34.2749 4.5 29.2314 7.41698 26.2745 11.8391L27.5215 12.6729ZM40 18V16.5C29.2304 16.5 20.5 25.2304 20.5 36H22H23.5C23.5 26.8873 30.8873 19.5 40 19.5V18ZM22 36L20.5 36C20.5 46.7695 29.2305 55.5 40 55.5V54V52.5C30.8873 52.5 23.5 45.1127 23.5 36L22 36ZM40 54V55.5C50.7695 55.5 59.5 46.7695 59.5 36L58 36L56.5 36C56.5 45.1127 49.1127 52.5 40 52.5V54ZM58 36H59.5C59.5 25.2305 50.7695 16.5 40 16.5V18V19.5C49.1127 19.5 56.5 26.8873 56.5 36H58Z"
    fill="#392E6B"></path>
  <path
    d="M42.5625 65.0626L45.3658 75.5248C45.8071 77.1715 47.9743 77.5466 48.9432 76.1439L51.1135 73.0021C51.6706 72.1956 52.7301 71.9117 53.6158 72.3316L57.0661 73.9674C58.6066 74.6977 60.2959 73.2893 59.8547 71.6425L56.1666 57.8784"
    stroke="#392E6B"
    stroke-width="3"></path>
  <path
    d="M23.8149 57.8511L20.1194 71.6425C19.6781 73.2892 21.3675 74.6977 22.908 73.9674L26.3583 72.3316C27.244 71.9118 28.3035 72.1956 28.8606 73.0021L31.0308 76.1439C31.9998 77.5466 34.167 77.1715 34.6083 75.5248L37.4618 64.8752"
    stroke="#392E6B"
    stroke-width="3"></path>
</svg>