<svg width="80" height="80" viewBox="0 0 80 80" fill="none" xmlns="http://www.w3.org/2000/svg">
<path d="M64.0131 24.4124H17.9019V47.1521H64.0131V24.4124Z" fill="white"/>
<path d="M71.5929 35.0899C71.5929 37.4375 71.1861 39.7225 70.4345 41.9449C69.8713 43.5725 69.1202 45.1063 68.1809 46.5149C67.3986 47.7043 66.5224 48.8624 65.6144 49.958C64.644 51.0848 63.5798 52.1491 62.5155 53.2134C61.733 53.9646 60.9191 54.6845 60.074 55.4044C58.9785 56.3435 57.8516 57.2512 56.7248 58.159C55.5666 59.098 54.4085 60.0057 53.1877 60.8821C51.5601 62.0716 49.9011 63.2298 48.2108 64.3253C46.3954 65.4835 44.5486 66.579 42.7018 67.6748C41.6376 68.3006 40.5733 68.8639 39.4778 69.4272C39.1022 69.6155 38.664 69.8345 38.2257 69.8658C37.0989 69.9597 36.6294 69.2707 36.8485 68.1755C36.9737 67.5177 37.318 66.9232 37.4745 66.2973C37.7249 65.3582 37.944 64.4192 38.0692 63.4802C38.1632 62.8541 38.1318 62.2281 38.0692 61.6021C38.0379 61.1012 37.4432 60.6317 36.9424 60.6005C34.5635 60.4126 32.1846 60.037 29.8683 59.3797C28.3345 58.9415 26.8008 58.3781 25.2983 57.7833C24.1088 57.3138 22.9507 56.7191 21.8238 56.0931C20.6657 55.4357 19.5702 54.7158 18.5059 53.9333C17.3165 52.9942 16.1583 52.0239 15.0941 50.9283C13.6855 49.5198 12.4648 47.9234 11.4631 46.1705C10.5554 44.6055 9.80415 42.9778 9.30333 41.225C9.02162 40.2233 8.83381 39.2217 8.646 38.1887C8.33299 36.7175 8.39559 35.2151 8.4582 33.7439C8.5208 32.7736 8.67731 31.8032 8.89642 30.8955C9.20943 29.6435 9.52244 28.3914 10.0233 27.202C10.4928 26.0438 11.0875 24.9169 11.7448 23.8527C12.4022 22.7885 13.1847 21.7868 13.9359 20.7852C14.0924 20.5661 14.2489 20.3783 14.4368 20.2217C15.2193 19.4392 15.9705 18.6567 16.7843 17.9368C17.5356 17.2795 18.3181 16.6534 19.1319 16.0587C19.9771 15.464 20.8222 14.8692 21.73 14.3684C22.8881 13.7111 24.0775 13.1164 25.2983 12.5843C26.5817 12.0208 27.9276 11.5513 29.2736 11.1757C30.7134 10.7688 32.2159 10.4245 33.6871 10.174C34.8452 9.95493 36.0033 9.86103 37.1928 9.76713C38.4761 9.64192 39.7595 9.61062 41.0116 9.61062C42.1071 9.64192 43.2026 9.73582 44.2669 9.86103C45.4563 10.0175 46.6145 10.174 47.8039 10.3931C48.8056 10.581 49.7759 10.8314 50.7462 11.1131C53 11.7391 55.1284 12.6156 57.1943 13.7111C58.8533 14.5875 60.4809 15.5891 61.9521 16.8099C62.672 17.3733 63.3294 17.9994 64.018 18.5941C65.8648 20.2844 67.3986 22.225 68.6509 24.3849C69.8087 26.3568 70.6542 28.4853 71.061 30.739C71.2487 31.6781 71.3426 32.6171 71.4677 33.5561C71.5616 34.1196 71.5616 34.6204 71.5929 35.0899ZM45.519 36.3106C45.4877 36.3106 45.4563 36.342 45.425 36.342C44.9555 35.6846 44.486 34.996 43.9852 34.3387C42.3888 32.1476 40.7611 29.9565 39.1335 27.7654C38.7892 27.2959 38.2883 27.0455 37.6936 27.0768C36.8172 27.1706 36.1599 27.8593 36.1286 28.767C36.1286 32.8675 36.1286 36.968 36.1286 41.0684C36.1286 41.757 36.4728 42.2266 37.0363 42.5709C37.944 43.1343 39.4152 42.3831 39.4152 41.1623C39.4152 38.7208 39.4152 36.3106 39.4152 33.8691C39.4152 33.7439 39.4152 33.6187 39.4152 33.4309C39.5091 33.5248 39.5717 33.5874 39.603 33.65C40.1977 34.4325 40.7611 35.2464 41.3558 36.0289C42.514 37.594 43.6722 39.1904 44.8303 40.7554C45.2372 41.2875 45.6441 41.8196 46.0824 42.2892C46.3954 42.6335 46.8023 42.8213 47.2718 42.7274C48.2108 42.5709 48.7743 41.9762 48.7743 40.9745C48.7743 36.9366 48.7743 32.9301 48.7743 28.8922C48.7743 28.7044 48.743 28.4853 48.7116 28.2975C48.5238 27.515 47.7413 26.9515 47.0527 27.0142C46.1137 27.108 45.519 27.7654 45.519 28.6418C45.519 31.052 45.519 33.4935 45.519 35.9037C45.519 36.0915 45.519 36.1854 45.519 36.3106ZM54.3146 30.3321C55.8484 30.3321 57.3508 30.3008 58.8533 30.3321C59.6358 30.3321 60.5122 29.6435 60.5122 28.7357C60.5122 27.7966 59.8549 27.0455 58.8846 27.0455C56.8187 27.0142 54.7528 27.0142 52.6556 27.0455C51.7166 27.0455 51.028 27.7654 51.028 28.7044C51.028 32.8362 51.028 36.968 51.028 41.0997C51.028 41.225 51.0593 41.3501 51.0593 41.5067C51.2158 42.3518 52.1235 42.7587 52.7808 42.7587C54.7528 42.7587 56.7248 42.7587 58.6968 42.7587C59.3854 42.7587 59.9488 42.5083 60.2931 41.8823C60.6062 41.3501 60.6062 40.7867 60.2618 40.2859C59.9801 39.8164 59.5732 39.5034 58.9785 39.5034C57.5386 39.5034 56.0988 39.5034 54.6589 39.5034C54.5337 39.5034 54.4085 39.5034 54.3146 39.5034C54.3146 38.5017 54.3146 37.5314 54.3146 36.5611C54.4711 36.5611 54.5963 36.5611 54.6902 36.5611C56.0675 36.5611 57.4761 36.5924 58.8846 36.5611C59.9801 36.5297 60.6062 35.6533 60.5122 34.8082C60.4184 33.8065 59.6671 33.2744 58.7594 33.3057C57.4134 33.3057 56.0361 33.3057 54.6902 33.3057C54.565 33.3057 54.4398 33.3057 54.3459 33.3057C54.3146 32.3041 54.3146 31.3337 54.3146 30.3321ZM22.7629 39.5034C22.7629 39.3155 22.7629 39.1904 22.7629 39.0652C22.7629 35.622 22.7629 32.1476 22.7629 28.7044C22.7629 28.3914 22.6377 28.0471 22.4812 27.7966C22.1682 27.2333 21.3543 26.9828 20.8222 27.1393C19.8832 27.3584 19.5076 28.0784 19.5076 28.7044C19.5076 32.8675 19.5076 37.0306 19.5076 41.1936C19.5076 42.0074 20.2901 42.8526 21.1978 42.8526C23.2011 42.8526 25.2044 42.8526 27.2077 42.8526C27.4268 42.8526 27.6459 42.8526 27.8337 42.79C28.5849 42.5396 29.1171 41.9136 29.0232 40.9119C28.9605 40.2859 28.1467 39.5347 27.4894 39.5659C26.0495 39.5973 24.641 39.5659 23.2011 39.5659C23.0446 39.5034 22.9194 39.5034 22.7629 39.5034ZM33.8122 34.9647C33.8122 32.8988 33.8122 30.8642 33.8122 28.7983C33.8122 28.5792 33.8122 28.3601 33.7184 28.141C33.4053 27.3584 32.6854 26.9515 31.9655 27.0455C31.0891 27.1706 30.5569 27.8906 30.5569 28.6418C30.5569 32.8049 30.5569 36.968 30.5569 41.1623C30.5569 41.2875 30.5882 41.4127 30.6195 41.5379C30.9012 42.4457 31.5898 42.8526 32.5289 42.6961C33.2175 42.5709 33.8435 41.9449 33.8122 41.0372C33.8122 39.0339 33.8122 36.9993 33.8122 34.9647Z" fill="#06C755"/>
</svg>
