<svg width="113" height="113" viewBox="0 0 113 113" fill="none" xmlns="http://www.w3.org/2000/svg">
<path d="M56.4811 17.5575C69.1667 17.5575 70.6558 17.6141 75.6696 17.8403C80.3065 18.0476 82.8135 18.8204 84.4911 19.4802C86.7153 20.3472 88.2986 21.3651 89.9573 23.0238C91.6161 24.6825 92.6528 26.2659 93.501 28.4901C94.1419 30.1677 94.9335 32.6746 95.1409 37.3115C95.3671 42.3254 95.4236 43.8145 95.4236 56.5C95.4236 69.1855 95.3671 70.6746 95.1409 75.6885C94.9335 80.3254 94.1607 82.8323 93.501 84.5099C92.6339 86.7341 91.6161 88.3175 89.9573 89.9762C88.2986 91.6349 86.7153 92.6716 84.4911 93.5198C82.8135 94.1607 80.3065 94.9524 75.6696 95.1597C70.6558 95.3859 69.1667 95.4425 56.4811 95.4425C43.7956 95.4425 42.3065 95.3859 37.2927 95.1597C32.6558 94.9524 30.1488 94.1796 28.4712 93.5198C26.247 92.6528 24.6637 91.6349 23.005 89.9762C21.3462 88.3175 20.3095 86.7341 19.4613 84.5099C18.8204 82.8323 18.0288 80.3254 17.8214 75.6885C17.5952 70.6746 17.5387 69.1855 17.5387 56.5C17.5387 43.8145 17.5952 42.3254 17.8214 37.3115C18.0288 32.6746 18.8016 30.1677 19.4613 28.4901C20.3284 26.2659 21.3462 24.6825 23.005 23.0238C24.6637 21.3651 26.247 20.3284 28.4712 19.4802C30.1488 18.8393 32.6558 18.0476 37.2927 17.8403C42.3065 17.5952 43.8145 17.5575 56.4811 17.5575ZM56.4811 9C43.5883 9 41.9673 9.05655 36.8968 9.28274C31.8452 9.50893 28.3958 10.3194 25.38 11.4881C22.251 12.6944 19.6121 14.3343 16.9732 16.9732C14.3343 19.6121 12.7133 22.2698 11.4881 25.38C10.3194 28.3958 9.50893 31.8452 9.28274 36.9157C9.05655 41.9673 9 43.5883 9 56.4811C9 69.374 9.05655 70.995 9.28274 76.0655C9.50893 81.1171 10.3194 84.5665 11.4881 87.6012C12.6944 90.7302 14.3343 93.369 16.9732 96.0079C19.6121 98.6468 22.2698 100.268 25.38 101.493C28.3958 102.662 31.8452 103.472 36.9157 103.698C41.9861 103.925 43.5883 103.981 56.5 103.981C69.4117 103.981 71.0139 103.925 76.0843 103.698C81.1359 103.472 84.5853 102.662 87.62 101.493C90.749 100.287 93.3879 98.6468 96.0268 96.0079C98.6657 93.369 100.287 90.7113 101.512 87.6012C102.681 84.5853 103.491 81.1359 103.717 76.0655C103.943 70.995 104 69.3929 104 56.4811C104 43.5694 103.943 41.9673 103.717 36.8968C103.491 31.8452 102.681 28.3958 101.512 25.3611C100.306 22.2321 98.6657 19.5933 96.0268 16.9544C93.3879 14.3155 90.7302 12.6944 87.62 11.4692C84.6042 10.3006 81.1548 9.49008 76.0843 9.26389C70.995 9.05655 69.374 9 56.4811 9Z" fill="black"/>
<path d="M56.4811 32.1092C43.0228 32.1092 32.0903 43.0229 32.0903 56.5C32.0903 69.9772 43.004 80.8909 56.4811 80.8909C69.9583 80.8909 80.872 69.9772 80.872 56.5C80.872 43.0229 69.9583 32.1092 56.4811 32.1092ZM56.4811 72.3145C47.7351 72.3145 40.6478 65.2272 40.6478 56.4812C40.6478 47.7352 47.7351 40.6479 56.4811 40.6479C65.2272 40.6479 72.3145 47.7352 72.3145 56.4812C72.3145 65.2272 65.2272 72.3145 56.4811 72.3145Z" fill="black"/>
<path d="M81.8333 36.8214C84.9772 36.8214 87.5258 34.2728 87.5258 31.129C87.5258 27.9851 84.9772 25.4365 81.8333 25.4365C78.6895 25.4365 76.1409 27.9851 76.1409 31.129C76.1409 34.2728 78.6895 36.8214 81.8333 36.8214Z" fill="black"/>
</svg>
