<svg width="113" height="113" viewBox="0 0 113 113" fill="none" xmlns="http://www.w3.org/2000/svg">
<path d="M97.7211 12H16.6635C11.375 12 7 16.0865 7 21.3269V51.3269C7 78.5385 29.5 101.135 57.1923 101.135C84.6923 101.135 107 78.5385 107 51.3269V21.3269C107 16.0385 102.817 12 97.7211 12ZM85.5577 49.2115L61.7115 71.6635C60.4615 73.0577 58.5865 73.6346 57.1442 73.6346C55.3654 73.6346 53.6346 73.1058 52.2404 71.6635L28.7788 49.2115C26.2788 46.6154 25.9904 42.1923 28.7788 39.4038C31.375 36.9038 35.7981 36.6154 38.4423 39.4038L57.1923 57.4327L76.3269 39.4038C78.8269 36.6154 83.2019 36.9038 85.6058 39.4038C88.0577 42.1442 88.0577 46.5673 85.5577 49.2115Z" fill="#EF4154"/>
<path d="M85.5577 49.2115L61.7116 71.6634C60.4616 73.0577 58.5865 73.6346 57.1442 73.6346C55.3653 73.6346 53.6346 73.1058 52.2403 71.6634L28.7789 49.2115C26.2789 46.6154 25.9904 42.1923 28.7789 39.4038C31.3751 36.9038 35.7981 36.6154 38.4424 39.4038L57.1924 57.4327L76.327 39.4038C78.827 36.6154 83.2019 36.9038 85.6057 39.4038C88.0576 42.1442 88.0577 46.5673 85.5577 49.2115Z" fill="white"/>
</svg>
