<svg width="113" height="113" viewBox="0 0 113 113" fill="none" xmlns="http://www.w3.org/2000/svg">
<g clip-path="url(#clip0_17_9)">
<mask id="mask0_17_9" style="mask-type:luminance" maskUnits="userSpaceOnUse" x="0" y="0" width="113" height="113">
<path d="M113 0H0V113H113V0Z" fill="white"/>
</mask>
<g mask="url(#mask0_17_9)">
<mask id="mask1_17_9" style="mask-type:luminance" maskUnits="userSpaceOnUse" x="0" y="0" width="113" height="113">
<path d="M113 0H0V113H113V0Z" fill="white"/>
</mask>
<g mask="url(#mask1_17_9)">
<path d="M60.4117 30.0954C59.3633 30.4993 59.0831 30.9187 59.0743 31.7287V75.8428C59.0964 76.6925 59.7451 77.401 60.5749 77.4849C60.6103 77.4871 98.856 77.5068 99.1032 77.5068C102.789 77.5057 106.324 76.0409 108.93 73.4344C111.537 70.8279 113.002 67.2931 113.003 63.607C113.002 61.3164 112.436 59.0615 111.353 57.0426C110.271 55.0238 108.707 53.3036 106.799 52.0349C104.892 50.7663 102.701 49.9885 100.421 49.7706C98.1406 49.5528 95.8418 49.9017 93.7289 50.7863C92.6254 38.2614 82.1201 28.4335 69.3061 28.4335C66.1721 28.4335 63.1152 29.0516 60.416 30.0977M54.7066 33.2206L54.0775 64.5318L54.7066 75.898C54.7287 76.7279 55.4039 77.412 56.2382 77.412C56.6418 77.408 57.0279 77.2462 57.3137 76.9611C57.5995 76.6761 57.7625 76.2906 57.7677 75.887V75.898L58.4517 64.5318L57.7677 33.2184C57.7456 32.3798 57.0703 31.6956 56.2382 31.6956C55.8334 31.699 55.4462 31.8612 55.1597 32.1473C54.8733 32.4333 54.7106 32.8203 54.7066 33.225M50.0563 35.8249L49.5177 64.5229C49.5177 64.545 50.0563 76.0613 50.0563 76.0613C50.0653 76.4377 50.2199 76.796 50.4873 77.061C50.7548 77.3259 51.1144 77.477 51.4909 77.4826C51.8685 77.4769 52.229 77.3249 52.4966 77.0585C52.7642 76.7921 52.9181 76.4322 52.9255 76.0547L53.5301 64.5339L52.9255 35.8204C52.9175 35.4433 52.7636 35.084 52.4961 34.8181C52.2285 34.5522 51.8681 34.4003 51.4909 34.3947C50.714 34.3947 50.0717 35.059 50.0563 35.8249ZM36.1521 38.8308L35.4414 64.5207L36.1543 76.3172C36.1763 76.9485 36.6728 77.4473 37.2974 77.4473C37.922 77.4473 38.423 76.9464 38.4451 76.3129V76.3063L39.2463 64.5207L38.4451 38.8308C38.423 38.1687 37.922 37.692 37.2974 37.692C36.9949 37.6926 36.705 37.8126 36.4905 38.0258C36.276 38.2391 36.1544 38.5284 36.1521 38.8308ZM40.7491 39.4886L40.0961 64.5252L40.7515 76.2069C40.7736 76.8911 41.3121 77.4385 41.9941 77.4385C42.676 77.4385 43.2146 76.8934 43.2344 76.2026V76.2092L43.9694 64.5252L43.2344 39.4886C43.2124 38.7956 42.6716 38.2527 41.9941 38.2527C41.3165 38.2527 40.7646 38.7978 40.7491 39.4886ZM31.5902 39.6651L30.8175 64.5207L31.5902 76.388C31.5964 76.6628 31.7092 76.9244 31.9048 77.1175C32.1004 77.3107 32.3635 77.4203 32.6384 77.423C32.9141 77.4202 33.1777 77.31 33.3734 77.1159C33.5691 76.9218 33.6816 76.6591 33.6867 76.3835L34.5542 64.5207L33.6867 39.6629C33.6647 39.0803 33.2012 38.6257 32.6384 38.6257C32.3624 38.6285 32.0985 38.7389 31.9027 38.9335C31.7069 39.1281 31.5947 39.3914 31.5902 39.6674M45.3841 40.4045L44.7882 64.5273L45.3841 76.1363C45.4062 76.8757 45.9887 77.4605 46.7236 77.4605C47.4586 77.4605 48.0434 76.8779 48.0588 76.1297V76.1385L48.7299 64.5296L48.0588 40.4066C48.0554 40.0538 47.9136 39.7165 47.6639 39.4672C47.4141 39.2179 47.0765 39.0765 46.7236 39.0736C45.9887 39.0736 45.3995 39.6585 45.3841 40.4045ZM27.0656 41.5764C27.0656 41.5786 26.2401 64.5163 26.2401 64.5163L27.0656 76.507C27.0877 77.0323 27.507 77.4473 28.0191 77.4473C28.2687 77.4429 28.507 77.3425 28.6845 77.167C28.8621 76.9915 28.9652 76.7544 28.9725 76.5049L29.906 64.5163L28.9725 41.5764C28.9652 41.3269 28.8621 41.0898 28.6845 40.9144C28.507 40.7389 28.2687 40.6385 28.0191 40.634C27.507 40.634 27.0921 41.049 27.0656 41.5764ZM22.5767 45.8449L21.6938 64.5163L22.5767 76.5799C22.5987 77.0522 22.9739 77.423 23.4307 77.423C23.8876 77.423 24.2604 77.0523 24.2869 76.5778L25.2867 64.5118L24.2869 45.8404C24.2582 45.3681 23.8831 44.9929 23.4307 44.9929C22.9783 44.9929 22.5987 45.3681 22.5767 45.8404M13.7087 52.137L12.711 64.5075L13.7087 76.474C13.7374 76.8448 14.0222 77.1229 14.3709 77.1229C14.7196 77.1229 15.0019 76.8448 15.0328 76.474L16.163 64.5075L15.0328 52.1327C14.9997 51.7641 14.7174 51.4838 14.3709 51.4838C14.0244 51.4838 13.7352 51.7662 13.7087 52.137ZM9.32992 52.4637C9.32992 52.4659 8.2749 64.5052 8.2749 64.5052L9.32992 76.1055C9.36303 76.4299 9.59909 76.6616 9.89704 76.6616C10.195 76.6616 10.4269 76.4298 10.4622 76.1098L11.6606 64.5075L10.4644 52.466C10.4291 52.146 10.1906 51.9142 9.89704 51.9142C9.6035 51.9142 9.36082 52.1504 9.32992 52.466M18.1249 53.0354L17.1871 64.5118L18.1249 76.5778C18.1305 76.7765 18.2127 76.9654 18.3542 77.1051C18.4956 77.2449 18.6853 77.3248 18.8841 77.3281C19.2858 77.3281 19.6124 77.0059 19.6433 76.5778L20.7115 64.5097L19.6433 53.0288C19.6102 52.6094 19.2902 52.2871 18.8841 52.2871C18.478 52.2871 18.1514 52.605 18.1249 53.0354ZM4.98645 54.3617C4.98645 54.3639 3.87431 64.5075 3.87431 64.5075L4.98645 74.4326C5.01955 74.6974 5.21816 74.8894 5.45873 74.8894C5.69929 74.8894 5.88918 74.704 5.9267 74.4347L7.18917 64.5075L5.9267 54.3617C5.88256 54.0924 5.69272 53.9049 5.45657 53.9049C5.22042 53.9049 5.01734 54.0969 4.98645 54.3617ZM0.824017 58.2329L-0.00146484 64.5075L0.824017 70.6761C0.857122 70.9366 1.04484 71.1176 1.27878 71.1176C1.51273 71.1176 1.69366 70.9366 1.72897 70.6761L2.70883 64.5052L1.72897 58.2285C1.69587 57.9702 1.50831 57.787 1.27878 57.787C1.04925 57.787 0.854915 57.968 0.824017 58.2285" fill="white"/>
</g>
</g>
</g>
<defs>
<clipPath id="clip0_17_9">
<rect width="113" height="113" fill="white"/>
</clipPath>
</defs>
</svg>
