<svg width="113" height="113" viewBox="0 0 113 113" fill="none" xmlns="http://www.w3.org/2000/svg">
<path d="M57.7064 80.7074L64.0135 87.0021C64.71 87.6972 64.71 88.8237 64.0135 89.5188L59.3366 94.15C59.0327 94.4566 58.7414 94.465 58.5582 94.465H54.4348C54.2725 94.465 53.9728 94.4608 53.6704 94.1611L48.931 89.4661C48.2345 88.771 48.2345 87.6444 48.931 86.9493L55.1854 80.7074C55.8819 80.0123 57.0113 80.0123 57.7064 80.7074ZM57.7591 54.8432L64.0676 61.1393C64.7641 61.8344 64.7641 62.961 64.0676 63.6561L46.41 81.2734C46.1034 81.5814 45.8121 81.5898 45.6303 81.5898H41.5069C41.3432 81.5898 41.0435 81.5856 40.7438 81.2859L36.0044 76.5618C35.308 75.8681 35.308 74.7401 36.0044 74.045L55.2381 54.8446C55.936 54.1495 57.0626 54.1495 57.7591 54.8432ZM57.7591 29.0345L64.0676 35.3306C64.7641 36.0257 64.7641 37.1523 64.0676 37.8474L33.4807 68.3996C33.1769 68.7049 32.8855 68.716 32.7038 68.716H28.579C28.4167 68.716 28.117 68.7104 27.8159 68.4093L23.0765 63.6574C22.38 62.9624 22.38 61.8358 23.0765 61.1407L55.2395 29.0345C55.936 28.3395 57.0626 28.3395 57.7591 29.0345ZM65.6424 10.7804C60.5922 5.73987 52.405 5.73987 47.3549 10.7804L4.78764 53.2727C-0.262547 58.3117 -0.262547 66.485 4.78764 71.5282L35.4786 102.236C36.7661 103.522 39.9461 105.122 42.2853 105.122H70.5052C72.2659 105.122 75.9703 103.783 77.6241 102.132L108.212 71.5282C113.263 66.485 113.263 58.3131 108.212 53.2727L65.6424 10.7804Z" fill="white"/>
</svg>
