<svg width="113" height="113" viewBox="0 0 113 113" fill="none" xmlns="http://www.w3.org/2000/svg">
<path d="M81.7121 84.3339C75.9951 90.4324 68.2253 92.4393 58.8231 93.3898C39.782 95.3155 23.2884 86.8107 21.2921 65.5683C20.4441 56.5371 22.4545 47.9511 26.5073 40.9163L24.1435 31.6307C23.7619 30.0195 25.2459 28.4825 26.8182 28.8641L34.9696 30.8427C39.8173 26.8642 45.6827 24.2637 52.1487 23.61C57.6819 23.0517 63.0455 23.9775 67.9215 26.0939L75.5817 21.4582C77.0233 20.5855 78.8501 21.5713 78.9879 23.2955L79.4295 34.2277C85.3231 40.4499 89.3335 48.944 90.2415 58.59C90.7539 64.0384 90.1885 68.2077 88.7434 72.1827C88.0685 74.0448 87.8636 75.6171 89.0861 77.1753C90.2663 78.6805 92.1389 81.6026 94.2271 81.1115C97.3647 80.3765 100.728 80.5709 102.806 81.8676C106.76 74.4582 109 65.9923 109 57C109 27.7299 85.2701 4 56 4C26.7299 4 3 27.7299 3 57C3 86.2701 26.7299 110 56 110C71.0096 110 84.5599 103.76 94.2024 93.7325C92.5099 93.4781 90.7821 92.8209 89.1391 91.7256C85.9839 89.6233 83.1819 87.634 81.7121 84.3339Z" fill="white"/>
<path d="M76.8185 45.4743L81.7687 44.8666L81.698 43.9762L76.6206 44.5981C76.4015 43.955 76.1577 43.3296 75.8857 42.7183L81.4789 40.934L81.3023 39.8139L75.3521 41.8739C71.3595 33.5069 62.7311 28.426 52.9614 29.4153C43.2094 30.4011 35.4855 37.4254 33.1147 46.4142L27.2953 45.5344L27.2317 46.6792L32.9627 47.3011C32.8073 47.9618 32.6801 48.354 32.5847 49.0324L27.585 49.4317L27.6309 50.3256L32.5034 49.9334C32.4186 50.6895 32.3656 51.1771 32.355 51.9509L27.903 53.7706L28.122 54.873L32.3621 52.8908C32.3727 53.4809 32.3974 53.7989 32.4539 54.396C33.6305 66.9252 44.0998 69.4056 56.6043 68.1407C69.1087 66.8757 78.9173 62.3495 77.7371 49.8168C77.6806 49.2161 77.5958 48.9017 77.4933 48.3187L82.0867 49.3151L82.1927 48.3045L77.3767 47.3894C77.2248 46.6403 77.0411 46.1881 76.8185 45.4743Z" fill="white"/>
</svg>
