<svg width="113" height="113" viewBox="0 0 113 113" fill="none" xmlns="http://www.w3.org/2000/svg">
<mask id="mask0_17_19" style="mask-type:luminance" maskUnits="userSpaceOnUse" x="13" y="8" width="87" height="98">
<path d="M99.044 8H13V106H99.044V8Z" fill="white"/>
</mask>
<g mask="url(#mask0_17_19)">
<path d="M56.7765 106H56.7471C42.1255 105.902 30.8849 101.08 23.3291 91.6724C16.6161 83.2934 13.1469 71.6412 13.0293 57.0392V56.9706C13.1469 42.3588 16.6161 30.7164 23.3389 22.3374C30.8849 12.9196 42.1353 8.098 56.7471 8H56.7765H56.8059C68.0171 8.0784 77.3957 10.9596 84.6771 16.5652C91.5273 21.8376 96.3489 29.3444 99.0047 38.8896L90.6747 41.2122C86.1667 25.0422 74.7595 16.7808 56.7667 16.6534C44.8891 16.7416 35.9025 20.4754 30.0617 27.747C24.6031 34.558 21.7807 44.3972 21.6729 57C21.7807 69.6028 24.6031 79.442 30.0715 86.253C35.9123 93.5344 44.8989 97.2682 56.7765 97.3466C67.4879 97.2682 74.5733 94.7692 80.4631 88.997C87.1859 82.4114 87.0683 74.3264 84.9123 69.4068C83.6481 66.506 81.3451 64.0952 78.2385 62.2626C77.4545 67.78 75.7003 72.2488 72.9955 75.62C69.3793 80.1182 64.2539 82.578 57.7663 82.9308C52.8565 83.1954 48.1231 82.039 44.4579 79.6576C40.1165 76.845 37.5783 72.5526 37.3039 67.5546C37.0393 62.6938 38.9699 58.225 42.7331 54.9714C46.3297 51.8648 51.3865 50.042 57.3645 49.699C61.7647 49.454 65.8905 49.65 69.6929 50.2772C69.1833 47.249 68.1641 44.8382 66.6353 43.1036C64.5381 40.7124 61.2943 39.4972 57.0019 39.4678C56.9627 39.4678 56.9235 39.4678 56.8843 39.4678C53.4347 39.4678 48.7503 40.4184 45.7711 44.8578L38.5975 40.046C42.5959 34.1072 49.0835 30.834 56.8843 30.834C56.9431 30.834 57.0019 30.834 57.0607 30.834C70.1045 30.9124 77.8759 38.8994 78.6501 52.835C79.0911 53.0212 79.5321 53.2172 79.9633 53.4132C86.0491 56.2748 90.4983 60.6064 92.8405 65.9474C96.0941 73.3856 96.3979 85.5082 86.5195 95.1808C78.9637 102.57 69.8007 105.912 56.8059 106H56.7765ZM60.8729 58.2642C59.8831 58.2642 58.8835 58.2936 57.8545 58.3524C50.3575 58.7738 45.6829 62.2136 45.9475 67.1038C46.2219 72.2292 51.8765 74.6106 57.3155 74.3166C62.3135 74.052 68.8207 72.1018 69.9183 59.1658C67.1547 58.568 64.1265 58.2642 60.8729 58.2642Z" fill="white"/>
</g>
</svg>
