<svg width="113" height="113" viewBox="0 0 113 113" fill="none" xmlns="http://www.w3.org/2000/svg">
<path d="M109 48.3405C109 52.2417 108.324 56.0388 107.075 59.7319C106.139 62.4367 104.891 64.9855 103.33 67.3262C102.03 69.3027 100.574 71.2273 99.0651 73.0478C97.4526 74.9204 95.6841 76.6889 93.9155 78.4575C92.6152 79.7058 91.2627 80.9022 89.8583 82.0985C88.0378 83.659 86.1652 85.1674 84.2927 86.6759C82.3681 88.2364 80.4435 89.7448 78.4149 91.2012C75.7101 93.1778 72.9533 95.1024 70.1445 96.9229C67.1276 98.8475 64.0587 100.668 60.9898 102.489C59.2213 103.529 57.4527 104.465 55.6322 105.401C55.008 105.714 54.2798 106.078 53.5516 106.13C51.679 106.286 50.8988 105.141 51.2629 103.321C51.471 102.228 52.0431 101.24 52.3032 100.2C52.7193 98.6394 53.0834 97.079 53.2915 95.5185C53.4476 94.4782 53.3955 93.4379 53.2915 92.3976C53.2395 91.5653 52.2512 90.7851 51.419 90.7331C47.4658 90.421 43.5126 89.7968 39.6635 88.7045C37.1147 87.9763 34.566 87.04 32.0692 86.0517C30.0926 85.2715 28.1681 84.2832 26.2955 83.2429C24.3709 82.1505 22.5504 80.9542 20.7819 79.6538C18.8053 78.0933 16.8807 76.4809 15.1122 74.6603C12.7715 72.3196 10.7429 69.6669 9.07842 66.754C7.56997 64.1532 6.3216 61.4484 5.48936 58.5356C5.02122 56.8711 4.70913 55.2066 4.39703 53.4901C3.87688 51.0453 3.98091 48.5486 4.08494 46.1039C4.18897 44.4914 4.44905 42.8789 4.81316 41.3705C5.33331 39.2899 5.85346 37.2092 6.68571 35.2327C7.46594 33.3081 8.45423 31.4355 9.54656 29.667C10.6389 27.8985 11.9393 26.234 13.1876 24.5695C13.4477 24.2054 13.7078 23.8933 14.0199 23.6332C15.3203 22.3328 16.5686 21.0325 17.921 19.8361C19.1694 18.7438 20.4698 17.7035 21.8222 16.7152C23.2266 15.7269 24.631 14.7386 26.1395 13.9063C28.064 12.814 30.0406 11.8257 32.0692 10.9415C34.2019 10.0052 36.4385 9.22495 38.6752 8.60077C41.0679 7.92457 43.5646 7.3524 46.0094 6.93628C47.9339 6.57217 49.8585 6.41612 51.8351 6.26008C53.9677 6.05202 56.1003 6 58.181 6C60.0015 6.05202 61.822 6.20806 63.5906 6.41612C65.5671 6.6762 67.4917 6.93628 69.4683 7.30038C71.1328 7.61248 72.7453 8.0286 74.3577 8.49674C78.1029 9.53705 81.6399 10.9935 85.0729 12.814C87.8297 14.2704 90.5345 15.9349 92.9793 17.9635C94.1756 18.8998 95.2679 19.9401 96.4123 20.9284C99.4812 23.7373 102.03 26.9622 104.111 30.5513C106.035 33.8282 107.44 37.3653 108.116 41.1104C108.428 42.6709 108.584 44.2313 108.792 45.7918C108.948 46.7281 108.948 47.5603 109 48.3405ZM65.6712 50.3691C65.6192 50.3691 65.5671 50.4212 65.5151 50.4212C64.7349 49.3288 63.9547 48.1845 63.1224 47.0922C60.4696 43.4511 57.7648 39.81 55.06 36.1689C54.4879 35.3887 53.6556 34.9726 52.6673 35.0246C51.2109 35.1806 50.1186 36.325 50.0666 37.8334C50.0666 44.6474 50.0666 51.4615 50.0666 58.2755C50.0666 59.4198 50.6387 60.2 51.575 60.7722C53.0834 61.7085 55.5282 60.4601 55.5282 58.4315C55.5282 54.3743 55.5282 50.3691 55.5282 46.3119C55.5282 46.1039 55.5282 45.8958 55.5282 45.5837C55.6842 45.7398 55.7882 45.8438 55.8403 45.9478C56.8286 47.2482 57.7648 48.6006 58.7531 49.901C60.6777 52.5018 62.6023 55.1546 64.5268 57.7553C65.203 58.6396 65.8792 59.5238 66.6075 60.3041C67.1276 60.8762 67.8038 61.1883 68.584 61.0323C70.1445 60.7722 71.0808 59.7839 71.0808 58.1194C71.0808 51.4094 71.0808 44.7515 71.0808 38.0415C71.0808 37.7294 71.0288 37.3653 70.9767 37.0532C70.6646 35.7528 69.3643 34.8165 68.2199 34.9206C66.6595 35.0766 65.6712 36.1689 65.6712 37.6254C65.6712 41.6305 65.6712 45.6878 65.6712 49.6929C65.6712 50.005 65.6712 50.1611 65.6712 50.3691ZM80.2875 40.4342C82.8363 40.4342 85.333 40.3822 87.8297 40.4342C89.1301 40.4342 90.5865 39.2899 90.5865 37.7814C90.5865 36.2209 89.4942 34.9726 87.8817 34.9726C84.4487 34.9206 81.0157 34.9206 77.5307 34.9726C75.9702 34.9726 74.8259 36.1689 74.8259 37.7294C74.8259 44.5954 74.8259 51.4615 74.8259 58.3275C74.8259 58.5356 74.8779 58.7436 74.8779 59.0037C75.138 60.4081 76.6464 61.0843 77.7387 61.0843C81.0157 61.0843 84.2927 61.0843 87.5697 61.0843C88.714 61.0843 89.6503 60.6682 90.2224 59.6279C90.7426 58.7436 90.7426 57.8073 90.1704 56.9751C89.7023 56.1949 89.0261 55.6747 88.0378 55.6747C85.6451 55.6747 83.2524 55.6747 80.8597 55.6747C80.6516 55.6747 80.4435 55.6747 80.2875 55.6747C80.2875 54.0102 80.2875 52.3977 80.2875 50.7853C80.5476 50.7853 80.7556 50.7853 80.9117 50.7853C83.2004 50.7853 85.5411 50.8373 87.8817 50.7853C89.7023 50.7332 90.7426 49.2768 90.5865 47.8724C90.4305 46.2079 89.1821 45.3236 87.6737 45.3757C85.437 45.3757 83.1483 45.3757 80.9117 45.3757C80.7036 45.3757 80.4956 45.3757 80.3395 45.3757C80.2875 43.7112 80.2875 42.0987 80.2875 40.4342ZM27.856 55.6747C27.856 55.3626 27.856 55.1546 27.856 54.9465C27.856 49.2248 27.856 43.4511 27.856 37.7294C27.856 37.2092 27.6479 36.6371 27.3878 36.2209C26.8677 35.2847 25.5153 34.8685 24.631 35.1286C23.0706 35.4927 22.4464 36.6891 22.4464 37.7294C22.4464 44.6474 22.4464 51.5655 22.4464 58.4835C22.4464 59.8359 23.7468 61.2404 25.2552 61.2404C28.5842 61.2404 31.9132 61.2404 35.2422 61.2404C35.6063 61.2404 35.9704 61.2404 36.2825 61.1363C37.5308 60.7202 38.4151 59.6799 38.2591 58.0154C38.155 56.9751 36.8026 55.7267 35.7103 55.7787C33.3176 55.8308 30.9769 55.7787 28.5842 55.7787C28.3241 55.6747 28.1161 55.6747 27.856 55.6747ZM46.2174 48.1325C46.2174 44.6995 46.2174 41.3185 46.2174 37.8854C46.2174 37.5213 46.2174 37.1572 46.0614 36.7931C45.5412 35.4927 44.3449 34.8165 43.1485 34.9726C41.6921 35.1806 40.8078 36.377 40.8078 37.6254C40.8078 44.5434 40.8078 51.4615 40.8078 58.4315C40.8078 58.6396 40.8598 58.8476 40.9118 59.0557C41.38 60.5642 42.5243 61.2404 44.0848 60.9803C45.2291 60.7722 46.2694 59.7319 46.2174 58.2235C46.2174 54.8945 46.2174 51.5135 46.2174 48.1325Z" fill="white"/>
</svg>
