<svg width="113" height="113" viewBox="0 0 113 113" fill="none" xmlns="http://www.w3.org/2000/svg">
<mask id="mask0_17_35" style="mask-type:luminance" maskUnits="userSpaceOnUse" x="7" y="7" width="100" height="100">
<path d="M107 7H7V107H107V7Z" fill="white"/>
</mask>
<g mask="url(#mask0_17_35)">
<path fill-rule="evenodd" clip-rule="evenodd" d="M27.37 107H86.63C97.88 107 107 97.88 107 86.63V27.37C107 16.12 97.88 7 86.63 7H27.37C16.12 7 7 16.12 7 27.37V86.63C7 97.88 16.12 107 27.37 107ZM55.074 55.212C58.304 55.458 60.822 56.596 62.634 58.62C64.45 60.64 65.358 63.348 65.36 66.72C65.36 69.158 64.852 71.288 63.828 73.136C62.812 74.978 61.354 76.412 59.446 77.42C57.904 78.244 55.996 78.844 53.724 79.202C51.448 79.548 47.728 79.728 42.57 79.728H29.728V34.274H42.192C47.318 34.274 50.89 34.44 52.932 34.764C54.964 35.1 56.706 35.668 58.172 36.474C59.848 37.404 61.122 38.646 62.01 40.198C62.876 41.76 63.322 43.566 63.322 45.61C63.322 48.19 62.67 50.242 61.356 51.752C60.036 53.282 57.948 54.428 55.074 55.212ZM43.896 44.35H41.236H41.234V53.47H43.708C46.76 53.47 48.846 53.132 49.99 52.466C51.12 51.788 51.69 50.63 51.69 48.988C51.69 47.282 51.154 46.082 50.102 45.388C49.036 44.698 46.97 44.35 43.896 44.35ZM45.566 71.524C48.492 71.524 50.578 71.16 51.788 70.416C53.01 69.676 53.616 68.446 53.616 66.734C53.616 64.818 53.062 63.484 51.94 62.728C50.836 61.972 48.758 61.594 45.752 61.594H41.236V71.524H45.566ZM78.516 68.212C75.334 68.212 72.758 70.788 72.758 73.968C72.758 77.15 75.336 79.726 78.516 79.726C81.694 79.726 84.272 77.148 84.272 73.968C84.272 70.788 81.694 68.212 78.516 68.212ZM73.516 34.272H83.516V64.576H73.516V34.272Z" fill="white"/>
</g>
</svg>
