<svg width="1440" height="292" viewBox="0 0 1440 292" fill="none" xmlns="http://www.w3.org/2000/svg">
<g clip-path="url(#clip0_384_5954)">
<circle cx="4" cy="152" r="150" fill="#70c9f3"/>
<circle cx="169.714" cy="237.714" r="145.714" fill="#70c9f3"/>
<circle cx="379.714" cy="317.714" r="145.714" fill="#70c9f3"/>
<circle cx="549.714" cy="377.714" r="145.714" fill="#70c9f3"/>
<circle cx="233.714" cy="329.714" r="145.714" fill="#70c9f3"/>
<circle cx="150" cy="150" r="150" transform="matrix(-1 0 0 1 1561 2)" fill="#70c9f3"/>
<circle cx="145.714" cy="145.714" r="145.714" transform="matrix(-1 0 0 1 1391.43 92)" fill="#70c9f3"/>
<circle cx="145.714" cy="145.714" r="145.714" transform="matrix(-1 0 0 1 1181.43 172)" fill="#70c9f3"/>
<circle cx="145.714" cy="145.714" r="145.714" transform="matrix(-1 0 0 1 1011.43 232)" fill="#70c9f3"/>
<circle cx="145.714" cy="145.714" r="145.714" transform="matrix(-1 0 0 1 1327.43 184)" fill="#70c9f3"/>
<circle cx="719.714" cy="363.714" r="145.714" fill="#70c9f3"/>
</g>
<defs>
<clipPath id="clip0_384_5954">
<rect width="1440" height="291.429" fill="white"/>
</clipPath>
</defs>
</svg>
