<svg width="1461" height="1642" viewBox="0 0 1461 1642" fill="none" xmlns="http://www.w3.org/2000/svg">
<path d="M908.302 1300.76C904.402 1298.8 883.662 1299.59 873.882 1301.15C864.102 1302.72 853.922 1294.5 849.232 1283.54C844.532 1272.58 845.712 1235.5 852.362 1233.1C859.012 1230.7 882.492 1235.01 895.792 1221.71C909.092 1208.41 928.662 1201.75 910.272 1186.88C891.882 1172.01 860.572 1167.71 859.012 1166.54C857.442 1165.36 850.112 1100.41 830.302 1102.75C810.492 1105.1 786.232 1104.1 784.272 1122.01C783.242 1131.47 779.832 1153.66 769.012 1169.27C759.352 1183.21 742.772 1190.78 732.622 1197.05C713.452 1166.53 672.122 1152.04 641.052 1154.79C614.182 1157.17 596.622 1187.25 565.922 1187.27C532.162 1187.29 503.922 1160.36 468.352 1162.23C438.542 1163.8 422.082 1199.26 392.272 1199.4C373.792 1182.97 341.892 1165.51 322.142 1165.71C304.002 1165.89 298.492 1174.24 281.602 1174.36C261.312 1174.5 258.442 1165.47 240.362 1165.71C222.972 1165.94 220.392 1200.07 205.532 1199.79C187.912 1199.46 182.392 1174.02 169.142 1167.45C142.242 1154.11 115.532 1154.79 115.532 1154.79C100.272 1155.96 49.0125 1188.83 45.8825 1192.36C42.7524 1195.89 7.53242 1269.45 13.7924 1296.06C20.0524 1322.67 6.00242 1361.8 64.2924 1369.23C122.582 1376.66 183.872 1359.06 188.052 1349.66C192.232 1340.27 211.792 1334.79 214.142 1339.88C216.492 1344.97 247.012 1378.23 255.232 1377.05C263.452 1375.88 287.322 1388.4 289.272 1347.7C291.232 1307 294.752 1250.27 309.232 1250.27C323.712 1250.27 347.972 1265.53 355.012 1260.84C362.052 1256.14 374.182 1248.71 377.712 1259.27C381.232 1269.84 377.712 1335.18 408.232 1349.27C438.752 1363.36 466.932 1380.57 495.102 1373.14C523.272 1365.71 547.532 1352.79 551.452 1343.4C555.362 1334.01 544.412 1307.36 544.412 1307.36C544.412 1307.36 520.152 1297.22 523.672 1287.83C527.192 1278.44 552.302 1258.09 552.302 1258.09C552.302 1258.09 572.982 1253.79 572.982 1262.39C572.982 1270.99 563.982 1318.35 569.072 1326.96C574.162 1335.57 587.462 1360.35 601.552 1365.37C615.642 1370.39 670.422 1363.67 670.422 1363.67C670.422 1363.67 684.902 1357.54 697.032 1362.01C709.162 1366.48 735.382 1378.24 740.862 1366.49C746.342 1354.74 745.163 1269.83 736.562 1251.83C727.962 1233.83 731.172 1222.09 734.452 1223.26C737.732 1224.43 771.912 1228.41 777.522 1237.18C783.132 1245.95 784.302 1350.04 800.732 1357.48C817.162 1364.91 816.382 1379.39 849.642 1372.74C882.902 1366.09 912.642 1355.91 915.382 1343.39C918.122 1330.87 912.232 1302.69 908.332 1300.74L908.302 1300.76ZM209.182 1263.2C206.832 1276.77 210.222 1326.07 197.702 1332.85C185.182 1339.63 178.132 1314.85 176.572 1307.81C175.002 1300.77 139.792 1304.42 122.052 1302.33C104.312 1300.24 94.1424 1277.81 92.3124 1269.82C90.4824 1261.83 108.482 1236.6 113.702 1235.29C118.922 1233.99 144.482 1237.12 158.052 1243.46C171.622 1249.8 189.092 1238.16 197.702 1234.25C197.702 1234.25 211.532 1249.64 209.182 1263.21V1263.2ZM482.452 1241.81C479.522 1243.18 462.492 1249.83 459.752 1245.72C457.012 1241.61 451.342 1238.68 457.402 1231.83C463.472 1224.98 480.492 1223.81 480.492 1223.81C483.232 1227.14 485.382 1240.44 482.452 1241.81Z" fill="#70C9F3"/>
<path d="M255.032 1172.32C255.272 1174.75 239.802 1175.81 230.412 1200.33C216.162 1237.54 223.222 1276.96 218.932 1302.07L215.772 1191.27L226.532 1171.9C226.532 1171.9 254.252 1164.29 255.032 1172.32Z" fill="#D6EEFA"/>
<path d="M140.183 1179.13C140.123 1180.82 97.0025 1180.56 74.3825 1201.5C37.4425 1235.69 13.8025 1297.64 14.4525 1303.3C15.4925 1312.43 11.0625 1220.6 27.2325 1209.13C43.4025 1197.66 72.1025 1170.4 92.1925 1167.46C112.283 1164.52 140.713 1163.48 140.193 1179.13H140.183Z" fill="#D6EEFA"/>
<path d="M660.002 1160.22C664.172 1162.31 672.262 1169.44 671.482 1175.53C670.702 1181.62 645.392 1174.31 620.612 1185.79C595.832 1197.27 586.702 1242.92 586.702 1242.92L567.402 1218.92L585.662 1168.31L660.012 1160.22H660.002Z" fill="#D6EEFA"/>
<path d="M516.862 37.4602C516.862 37.4602 740.692 9.29016 767.292 10.8502C793.902 12.4202 1056.86 -4.86982 1114.77 24.1202C1172.68 53.1102 1243.62 85.9802 1257.46 121.98C1271.3 157.98 1287.2 232.9 1270.57 270.96C1253.94 309.02 1180.22 369.59 1160.8 373.35C1141.38 377.11 883.912 364.89 830.302 373.35C776.692 381.81 728.892 386.5 730.092 408.41C731.292 430.32 693.642 464.76 752.382 475.71C811.122 486.66 1036.04 456.41 1155.47 490.3C1183.56 498.27 1225.06 565.01 1230.96 587.67C1236.86 610.33 1199.01 749.63 1160.8 765.28C1122.6 780.93 1017.49 812.56 958.912 809.27C900.332 805.98 732.862 812.3 734.422 819.31C735.982 826.32 756.902 892.88 730.082 901.45C703.262 910.02 676.502 921.8 681.202 946.84C685.902 971.88 668.302 1081.77 655.972 1094.91C643.642 1108.05 571.642 1186.46 516.852 1178.56C462.062 1170.66 342.492 1160.03 324.192 1076.6C305.892 993.17 285.772 832.99 282.352 774.87C278.932 716.75 287.552 363.01 298.112 345.79C308.672 328.57 331.132 171.49 343.382 157.68C355.632 143.87 433.892 64.0502 452.672 59.3502C471.452 54.6502 516.842 37.4402 516.842 37.4402L516.862 37.4602Z" fill="#FCA95B"/>
<path d="M991.923 1165.7C968.603 1172.42 958.533 1168.7 952.273 1193.22C946.013 1217.74 938.183 1322.61 940.793 1332C943.403 1341.39 946.542 1371.65 966.102 1373.74C985.662 1375.83 1002.88 1385.74 1013.31 1373.74C1023.74 1361.74 1035.74 1348.17 1037.31 1330.44C1038.88 1312.71 1058.03 1251.66 1042.45 1215.14C1026.87 1178.62 998.703 1163.75 991.923 1165.71V1165.7Z" fill="#FCA95B"/>
<path d="M405.992 101.31C344.542 182.64 341.422 465.22 347.292 710.57C349.262 792.82 352.192 903.35 375.982 964.14C408.982 1048.47 459.072 1083.39 518.032 1088.64C556.702 1092.08 584.142 1078.01 605.682 1059.94C638.842 1032.14 654.222 997.97 649.992 972.35C643.002 930.09 613.412 796.69 611.422 784.7C606.592 755.69 616.642 724.56 661.562 718.69C680.782 716.18 838.822 720.73 1006.36 717.52C1087.22 715.97 1124.94 701.31 1154.55 681.22C1208.69 644.49 1218.13 615.86 1218.13 615.86C1237.35 657.17 1213.29 700.07 1176.07 743.44C1087.45 802.45 933.792 819.8 752.292 819.32H674.382L649.992 842.05L674.382 1094.93L534.862 1165.71C454.872 1166.54 384.632 1143.42 327.332 1088.49C286.322 937.12 277.382 771.35 280.372 600.23L310.892 283.27L351.522 126.23L405.972 101.32L405.992 101.31Z" fill="#FC5695"/>
<path d="M277.243 1209.52C299.943 1189.56 346.503 1178.93 360.593 1185.85C360.593 1185.85 330.853 1163.75 313.243 1166.48C295.633 1169.21 276.463 1184.87 277.243 1209.52Z" fill="#D6EEFA"/>
<path d="M679.122 385.52C667.382 365.95 646.042 300.64 701.032 265C743.292 237.61 819.202 275.96 1061.03 267.35C1099.43 265.98 1254.39 280.83 1266.86 177.35C1305.99 249.35 1233.99 340.13 1233.99 340.13L1093.12 373.35L718.752 396.48L679.122 385.52Z" fill="#FC5695"/>
<path d="M1449.1 1276.57C1448.06 1259.87 1426.14 1191 1414.14 1186.83C1402.14 1182.66 1351.01 1169.61 1343.18 1170.92C1335.35 1172.23 1294.14 1158.14 1294.14 1158.14C1294.14 1158.14 1275.36 1171.71 1272.75 1173.27C1271.65 1173.93 1257.46 1188.92 1244.58 1210.01C1178.32 1152.4 1135.54 1150.83 1135.54 1150.83C1113.63 1155.53 1091.71 1163.87 1080.76 1182.13C1069.81 1200.39 1047.89 1205.18 1046.33 1240.35C1044.76 1275.52 1056.76 1340.22 1083.9 1351.17C1111.03 1362.13 1118.26 1377.58 1160.82 1365.94C1203.38 1354.3 1223.09 1324.04 1230.98 1313.6C1238.87 1303.16 1248.25 1311.51 1252.95 1330.3C1257.65 1349.08 1247.69 1369.43 1277.71 1368.39C1307.73 1367.35 1333.31 1349.41 1330.16 1297.96C1327.01 1246.5 1339.55 1247.87 1344.25 1247.35C1348.95 1246.83 1372.95 1247.94 1373.99 1260.95C1375.03 1273.96 1373.47 1325.61 1373.99 1340.74C1374.51 1355.87 1375.56 1376.22 1389.12 1375.7C1402.69 1375.18 1431.5 1378.11 1438.22 1362.03C1444.94 1345.96 1450.16 1293.26 1449.12 1276.57H1449.1ZM1175.97 1272.26C1172.84 1288.04 1166.19 1297.18 1146.23 1300.31C1126.27 1303.44 1120.4 1276.44 1120.4 1263.27C1120.4 1250.1 1131.02 1228.09 1138.4 1224.4C1157.97 1214.62 1166.97 1226.75 1172.83 1229.1C1178.7 1231.45 1179.09 1256.49 1175.96 1272.27L1175.97 1272.26Z" fill="#70C9F3"/>
<path d="M785.932 1189.5C783.192 1193.22 769.612 1197.17 764.802 1204.76C757.342 1216.55 757.562 1231.17 757.562 1231.17L740.152 1210.33L751.112 1187.54L782.612 1180.11C782.612 1180.11 788.682 1185.78 785.942 1189.5H785.932Z" fill="#D6EEFA"/>
<path d="M848.612 1136.24C848.612 1136.24 835.572 1124.03 810.532 1132.38C785.492 1140.73 783.402 1154.81 783.402 1154.81L780.792 1131.33L799.572 1108.63L834.792 1113.33L848.612 1136.24Z" fill="#D6EEFA"/>
<path d="M979.872 1082.61C969.332 1080.47 949.142 1081.04 944.452 1086C939.762 1090.96 926.452 1112.61 926.452 1118.87C926.452 1125.13 929.842 1165.83 938.972 1170C948.102 1174.17 974.192 1176.52 981.232 1172.87C988.272 1169.22 996.462 1160.01 1003.32 1165.53C1010.18 1171.05 1031.05 1173.65 1037.31 1171.04C1043.57 1168.43 1051.5 1169.47 1057.58 1154.87C1063.66 1140.27 1066.53 1114.44 1062.35 1112.61C1058.17 1110.78 1041.73 1095.78 1046.17 1091.09C1050.61 1086.4 1069.63 1074.26 1055.62 1066.44C1041.61 1058.62 1036.92 1054.31 1025.18 1056.27C1013.44 1058.23 999.352 1065.66 998.182 1070.75C997.012 1075.84 994.022 1085.49 979.862 1082.62L979.872 1082.61Z" fill="white"/>
<path d="M450.132 1176C454.562 1175.22 468.912 1174.7 466.562 1180.43C465.642 1182.67 435.312 1192.03 420.132 1216.69C396.352 1255.31 396.132 1284.12 394.832 1323.12C388.832 1323.38 385.182 1228.16 385.182 1228.16L429.532 1179.12L450.142 1175.99L450.132 1176Z" fill="#D6EEFA"/>
<path d="M889.642 616.91C900.962 613.31 949.663 607 958.913 614.82C968.163 622.64 974.163 635.95 968.423 643.25C962.683 650.55 944.422 664.9 931.382 662.03C918.342 659.16 892.252 653.68 889.642 647.16C887.032 640.64 883.902 618.73 889.642 616.9V616.91Z" fill="#FC5695"/>
<path d="M667.212 863.11L655.982 870.98L673.672 909.33C672.782 900.61 671.622 887.9 673.472 878.42C675.132 869.94 679.802 864.29 679.342 861.99C678.362 857.1 667.212 863.12 667.212 863.12V863.11Z" fill="#FFE3B0"/>
<path d="M1185.26 1166.55C1185.26 1166.55 1149.17 1165.53 1105.43 1187.48C1066.02 1207.25 1050.65 1284 1050.65 1284C1050.65 1284 1055.35 1198.53 1074.65 1174.68C1093.95 1150.83 1144.27 1154.81 1144.27 1154.81L1185.26 1166.55Z" fill="#D6EEFA"/>
<path d="M1318.17 1199.87C1322.41 1205.55 1332.4 1195.99 1347.39 1188.91C1359.16 1183.36 1375.35 1180.09 1385.22 1181.87C1372.7 1165.72 1342.18 1165.72 1342.18 1165.72C1342.18 1165.72 1308.94 1187.49 1318.18 1199.87H1318.17Z" fill="#D6EEFA"/>
<path d="M605.952 1255.86C606.792 1258.56 593.732 1268.75 588.532 1286.06C580.472 1312.9 588.012 1345.96 586.442 1348.57C584.872 1351.18 564.792 1323.14 564.792 1323.14L574.182 1271.62C574.182 1271.62 580.962 1261.19 605.952 1255.87V1255.86Z" fill="#D6EEFA"/>
<path d="M1304.87 1162.14C1303.77 1166.21 1287.37 1175.61 1280.35 1188.92C1272.87 1203.09 1276.36 1238.95 1267.31 1321.31C1259.4 1324.52 1255.05 1219.7 1255.05 1219.7L1256.68 1178.22L1280 1154.22C1280 1154.22 1307.35 1153.04 1304.88 1162.14H1304.87Z" fill="#D6EEFA"/>
<mask id="mask0_29_35" style="mask-type:luminance" maskUnits="userSpaceOnUse" x="0" y="0" width="1461" height="1642">
<path d="M1290.93 1621.53L1261.28 1588.97C1255.01 1600.9 1262.79 1621.57 1249 1624.06C1246.79 1624.46 1241.84 1620.54 1241.81 1617.96C1241.5 1590.3 1241.63 1561.49 1243.28 1534.27C1243.89 1524.2 1251.38 1519.34 1260.11 1519.27C1273.24 1519.17 1286.1 1521.54 1295.62 1530.77C1303.77 1538.68 1305.64 1549.83 1302.99 1561.17C1300.8 1570.54 1292.45 1578.38 1282.02 1583.37L1303.88 1610.86C1305.68 1613.12 1303.99 1620.69 1301.68 1622.23C1299.37 1623.77 1293.14 1623.94 1290.94 1621.52L1290.93 1621.53ZM1281.67 1564.47C1287.82 1559.78 1287.78 1549.91 1283.52 1544.68C1278.07 1538 1268.48 1534.99 1260.38 1537.84L1259.58 1572.91C1268.64 1571.46 1274.99 1569.58 1281.67 1564.48V1564.47ZM1043.04 1621.56C1052.99 1626.26 1063.97 1624.1 1072.83 1618.25C1094.46 1603.96 1090.01 1558.27 1086.07 1534.85C1085.54 1531.67 1078.32 1527.99 1075.39 1528.87C1060.59 1533.32 1083.99 1608.07 1055.23 1606.41C1028.82 1604.88 1050.4 1532.11 1033.23 1529.51C1029.81 1528.99 1023.74 1531.94 1023.51 1536.63C1022.23 1563.36 1019.27 1610.34 1043.04 1621.56ZM1361.64 1583.49C1364.51 1583.43 1368.67 1577.71 1368.49 1575.03C1368.32 1572.35 1363.61 1567.97 1360.52 1567.89L1338.02 1567.31C1337.7 1560.3 1338.35 1551.94 1340.82 1545.25L1373.73 1543.94C1377.1 1543.81 1380.91 1536.64 1379.6 1533.87C1378.45 1531.42 1373.37 1527.58 1370.36 1527.6L1338.12 1527.79C1328.92 1527.85 1322.05 1534.79 1321.65 1544.26L1318.76 1612.64C1318.53 1617.97 1325.16 1623.09 1329.81 1623.04L1370.8 1622.65C1374.01 1622.62 1378.67 1616.1 1378.27 1613.01C1377.74 1608.94 1372.95 1606.15 1368.49 1606.16L1336.8 1606.25L1337.43 1583.99L1361.64 1583.49ZM836.182 1599.06C834.532 1608.98 828.192 1617.03 821.632 1620.64C812.092 1625.9 796.722 1620.45 794.832 1620.71C792.942 1620.97 794.582 1623.06 786.492 1622.93C778.402 1622.8 778.642 1618.55 778.642 1618.55L778.822 1529.75C778.822 1525.73 783.602 1521.51 786.962 1521.59C789.832 1521.67 795.482 1525.38 795.542 1528.25L796.332 1569.66C807.542 1565.32 816.693 1565.45 824.812 1570.5C834.283 1576.4 838.292 1586.37 836.182 1599.05V1599.06ZM818.812 1595.6C818.812 1588.98 813.442 1583.61 806.822 1583.61C800.202 1583.61 794.832 1588.98 794.832 1595.6C794.832 1602.22 800.202 1607.59 806.822 1607.59C813.442 1607.59 818.812 1602.22 818.812 1595.6ZM1184.12 1622.27C1193.03 1626.65 1203.33 1625.19 1211.89 1619.45C1232.75 1605.47 1228.24 1559.72 1226.68 1534.06C1226.49 1530.95 1219.99 1527.09 1217.24 1527.76C1214.88 1528.34 1211.35 1532.94 1211.32 1535.58L1210.79 1584.34C1210.71 1591.71 1207.2 1600.65 1201.54 1605.17C1199.24 1607 1191.49 1606.49 1189.66 1604.41C1173.37 1585.94 1191.54 1531.54 1175.27 1529.48C1171.24 1528.97 1165.93 1533.32 1165.87 1537.89C1165.49 1566.82 1160.1 1610.45 1184.12 1622.27ZM1458.18 1599.09C1458.14 1591.3 1453.9 1582.07 1446.25 1577.77L1420.81 1563.46C1418.22 1562.01 1415.53 1556 1416.02 1553.37C1416.51 1550.74 1420.46 1546.84 1423.8 1545.8C1437.38 1541.57 1448.6 1556.44 1453.75 1546.32C1455.91 1542.08 1453.68 1536.82 1449.83 1534.5C1435.59 1525.92 1419.05 1525.35 1406.2 1536.17C1399.66 1541.67 1396.44 1550.23 1397.33 1559.07C1397.9 1564.77 1403.18 1572.99 1409.66 1576.69L1435.24 1591.34C1437.46 1592.61 1439.78 1598.31 1439.48 1600.78C1439.19 1603.25 1434.84 1607.4 1432.2 1607.86C1411.24 1611.5 1398.2 1596.75 1393.82 1607.1C1389.33 1617.7 1419.34 1631.2 1443.43 1620.91C1452.99 1616.82 1458.23 1607.65 1458.19 1599.1L1458.18 1599.09ZM971.412 1566.46L972.762 1542.66L1005.1 1541.18C1009 1541 1013.24 1535.31 1012.7 1531.29C1012.19 1527.51 1007.05 1524.07 1002.62 1524.14L968.442 1524.69C961.262 1524.81 955.192 1530.07 955.002 1537.95C954.392 1563.17 954.312 1587.12 955.082 1612.43C955.222 1617.18 961.032 1622.27 964.902 1621.57C968.772 1620.87 971.772 1616.56 971.852 1612.54L972.392 1585.01L992.922 1583.18C996.002 1582.9 999.542 1575.98 998.402 1573.44C997.422 1571.26 993.062 1567.87 990.382 1567.69L971.422 1566.46H971.412ZM895.272 1547.38C891.422 1546.63 886.352 1549.58 885.162 1553.16L875.822 1581.41L862.562 1551.8C861.482 1549.39 855.972 1546.96 853.372 1547.1C837.662 1547.96 863.082 1599.04 869.542 1605.94C866.162 1620.54 845.412 1628.75 852.062 1637.47C861.613 1650 879.412 1627.88 884.992 1613.5C889.592 1601.66 908.972 1550.03 895.262 1547.38H895.272ZM1137.51 1547.42L1149.47 1545.2C1152.68 1544.61 1157.37 1541.48 1158.53 1538.84C1159.69 1536.2 1157.22 1527.94 1153.9 1527.87C1138.13 1527.55 1121.47 1527.61 1104.74 1528.35C1101.98 1528.47 1097.64 1533.23 1096.56 1535.67C1095.63 1537.77 1097.71 1544.49 1100.27 1544.73L1120.01 1546.56L1120.92 1613.42C1120.96 1616.66 1128.23 1619.7 1131.08 1618.83C1133.52 1618.09 1137.46 1613.19 1137.47 1609.58L1137.52 1547.42H1137.51ZM1000.32 569.54C991.192 584.47 999.022 595.03 987.022 624.52C977.512 647.88 958.762 661.02 934.612 664.72C907.792 668.83 882.542 655.25 873.622 628.43C867.062 608.7 867.002 587.8 869.822 566.28L903.912 574.49C935.062 581.99 996.132 566.53 999.952 567.57C1000.68 567.77 1000.68 568.95 1000.31 569.55L1000.32 569.54ZM957.222 637.93C970.522 615.83 901.042 621.27 894.462 628.16C894.162 643.57 910.262 652.14 924.112 652.18C937.282 652.21 949.602 650.59 957.222 637.93ZM1001.12 530.64C998.062 524.63 989.792 519.29 983.152 523.46C975.712 528.14 970.712 535.74 969.622 544.81L980.542 539.9C982.262 539.13 986.692 538.13 988.402 538.94C993.902 541.55 993.452 552.63 1002.42 558.52C1009.56 548.45 1005.71 539.64 1001.12 530.63V530.64ZM891.292 544.24C893.192 541.56 891.213 532.45 889.062 528.81C887.293 525.82 880.852 521.87 876.872 523.4C864.032 528.33 855.552 543.91 861.812 558.3L876.272 538.81C879.722 537.53 886.612 542.09 891.282 544.24H891.292ZM1242.57 1204.74C1243.91 1180.27 1256.52 1161.47 1277.52 1150.96C1295.2 1142.12 1314.74 1145.08 1328.89 1159.66C1381.81 1143.57 1435.35 1172.41 1450.94 1226.45C1461.19 1261.96 1463.07 1300.69 1455.9 1337.18C1449.75 1368.46 1421.28 1389.15 1391.27 1383.8C1376.27 1381.12 1362.43 1370.84 1361.14 1355.47C1358.59 1325.04 1364.68 1301.32 1361.62 1266.73C1361.38 1264.06 1357.16 1259.5 1354.79 1258.95C1342.09 1256.01 1340.88 1283.75 1340.28 1292.21C1339.03 1309.65 1337.41 1326.4 1334.05 1343.15C1329.06 1368.03 1308.04 1383.38 1283.03 1381.62C1261.88 1380.13 1246.34 1365.36 1243.75 1344.04L1240.63 1318.38C1214.83 1366.57 1161.24 1391.54 1109.42 1374.96C1083.95 1366.81 1064.41 1349.08 1047.08 1328.17C1041.28 1352.78 1038.38 1381.48 1004.73 1385.21C989.682 1386.88 974.022 1387.06 960.322 1380.44C942.432 1371.79 933.682 1354.26 929.792 1333.84C910.322 1365.43 875.872 1385.24 838.342 1383.02C817.102 1381.76 799.492 1370.81 789.532 1352.55C771.362 1319.25 775.352 1281.91 771.932 1245.42L743.602 1236.01C748.292 1273.24 754.052 1309.15 754.662 1345.95C755.052 1369.59 737.502 1388.92 714.272 1386.31C701.482 1384.88 691.942 1376.27 683.112 1367.3C641.852 1389.72 591.902 1388.16 563.552 1344.29C528.722 1389.79 461.712 1398.07 414.322 1368.13C396.282 1356.74 382.162 1339.35 375.012 1319.29C368.972 1302.33 370.022 1284.88 370.352 1265.88C351.302 1278.47 331.002 1277.05 314.762 1262.1C279.412 1283.32 315.952 1349.53 286.662 1374.79C270.502 1388.73 245.812 1391.5 227.002 1381.31C212.692 1373.55 208.252 1358.73 204.712 1342.65C163.792 1394.21 90.8424 1401.61 38.4924 1366.45C13.5324 1349.7 3.09245 1324.7 0.572447 1295.83C-5.55755 1225.56 38.0424 1161.73 107.432 1146.75C144.192 1138.81 178.922 1152.93 201.782 1184.24C208.592 1167.41 221.332 1155.38 235.862 1151.78C253.652 1147.37 269.902 1153.02 282.832 1166.44C328.602 1141.16 364.872 1156.36 393.322 1196L408.972 1175.36C374.812 1161.85 349.012 1138.78 331.602 1106.45C309.722 1065.81 296.662 1022.02 290.612 975.47C281.672 906.68 276.242 839.69 271.972 770.17C267.862 703.28 268.702 638.98 271.542 572.23L277.172 439.7C280.942 350.97 289.142 261.04 322.252 178.47C337.812 139.66 362.072 108.06 394.662 82.5502C426.012 58.0102 459.632 40.5102 498.132 29.5302C543.402 16.6202 588.212 10.1402 635.612 6.93019C733.532 0.300185 829.972 -1.33982 928.272 1.02018C986.922 2.43018 1043.25 6.31019 1100.85 14.9302C1127.4 18.9102 1151.82 25.7002 1176.25 35.6402C1206.99 48.1502 1232.66 67.4302 1252.03 94.6402C1306.13 170.61 1323.78 281.08 1239.77 344.18C1204.02 371.03 1162.17 390.66 1116.15 390.43C1030.49 390 842.682 385.62 767.272 399.69C758.402 401.34 748.762 407.49 747.472 416.74C745.582 430.22 746.642 464.47 768.632 465.3C792.692 466.2 815.792 465.08 840.232 463.89L968.272 457.65C1017.3 455.26 1064.76 455.87 1113.26 460.87C1137.77 463.39 1161.12 469.49 1182.13 482.1C1225.38 508.06 1249.15 555.6 1248.02 606.26C1247 651.93 1232.52 694.88 1205.93 731.58C1182.52 763.9 1150.72 786.41 1112.96 799.02C1048.56 820.52 955.042 820.03 886.362 823.77L758.292 830.75C754.382 830.96 748.372 833.37 745.412 835.05C748.802 871.68 750.032 911.89 709.092 927.32L690.942 934.16L696.702 976.23C704.872 1035.87 695.332 1100.83 647.862 1143.96C686.492 1146.86 717.542 1155.08 732.942 1190.17C739.562 1177.58 751.352 1173.33 764.382 1169.47L769.062 1133.33C772.973 1103.16 805.842 1093.51 830.422 1097.53C859.962 1102.36 862.112 1129.23 863.842 1152.34L895.232 1159C919.092 1164.06 924.832 1193.47 920.892 1214.6C915.482 1243.6 883.372 1239.26 859.442 1241.96C857.102 1259.89 856.052 1280.57 863.212 1298.04C889.972 1282.57 900.802 1277.99 926.412 1298.45L932.612 1242.9C934.952 1221.91 940.522 1202.51 948.332 1181.83C912.502 1180.64 913.482 1134.99 918.252 1110.63C921.752 1092.79 934.832 1079.85 952.872 1076.05C963.822 1073.74 975.032 1075.99 986.572 1079.06C988.312 1064.63 999.172 1055.2 1013.1 1050.54C1028.45 1045.42 1046.53 1045.81 1057.68 1058.6C1068.13 1070.58 1062.76 1086.67 1056.46 1099.63C1065.7 1105.65 1072.84 1114.29 1072.02 1126C1070.39 1149.32 1058.57 1168.43 1037.21 1179.31L1048.87 1202.16C1079.43 1152.36 1126.91 1121.65 1186.18 1149.84C1210.75 1161.53 1227.51 1180.79 1242.56 1204.72L1242.57 1204.74ZM629.612 789.13C632.192 765.64 647.642 747.31 669.492 739.62C688.432 732.95 707.982 732.02 728.382 733.11L853.092 739.77C923.212 743.51 1047.21 737.67 1115.36 719.59C1172.89 704.33 1224.86 658.22 1218.1 594.06C1213.28 548.29 1181.42 510.89 1137.41 496.98C1071.83 476.25 960.262 483.47 890.322 488.17L796.232 494.49C775.122 495.91 754.512 493.39 734.292 488.21C716.602 483.67 702.632 473.22 693.082 457.22C670.252 418.99 665.922 371.14 683.862 329.64C699.372 293.78 741.352 282.67 778.522 283.49L1043.63 289.3C1081.2 290.12 1116.93 289.83 1154.04 286.03C1177.32 283.65 1199.59 278.49 1220.12 268.87C1267.59 246.61 1261.85 193.33 1246.2 152.37C1237.16 128.7 1225.46 107.08 1205.77 90.6802C1184.03 72.5702 1159.02 61.9502 1131.33 54.9902C1081.76 42.5202 1032.68 36.1902 981.302 33.0302C893.862 27.6502 808.142 28.4602 720.352 31.9702C667.192 34.0902 616.802 38.7802 564.542 46.3402C484.542 57.9102 422.392 78.8302 375.932 148.1C351.392 184.69 334.192 223.55 327.132 267.46C320.002 311.79 314.582 354.5 311.192 399.53C304.772 484.78 299.952 568.2 297.972 654.22C295.542 759.43 303.352 862.77 317.142 966.35C319.522 984.23 324.682 1000.23 333.612 1016.5C340.772 1004.7 337.602 994.09 335.922 981.92C315.582 834.73 309.802 686.8 322.992 538.73C323.972 527.71 326.662 504.57 331.282 508.95C334.162 511.68 329.222 630 332.582 758C334.612 835.39 339.692 916.32 351.362 977.38C361.952 1032.77 404.672 1068.72 412.532 1075.71C428.722 1090.1 447.432 1097.2 467.442 1105.84C463.952 1108.59 458.322 1109.68 453.392 1108.81C416.962 1102.36 386.992 1082.25 367.062 1051.52L354.252 1031.76C345.352 1032.64 343.352 1042.27 345.032 1049.35C354.902 1090.95 386.102 1120.61 427.152 1132.11C452.512 1139.22 477.662 1142.14 504.212 1145.24C540.242 1149.44 573.702 1139.79 600.742 1114.19C638.242 1078.68 661.462 1028.7 663.972 976.19C666.152 930.45 622.052 858.07 629.612 789.13ZM1093.95 359.38C1112.55 359.73 1129.34 358.49 1147.05 355.45C1178.66 350.03 1218.78 327.11 1224.11 291.25C1187.67 300.74 1153.45 307.46 1115.95 307.23L780.582 305.15C750.932 304.97 709.982 312.48 707.972 347.99C707.472 356.82 711.312 365.78 717.462 369.94C724.112 374.43 731.742 373.74 739.732 372.08C813.172 356.76 1012.1 357.84 1093.95 359.38ZM1078.46 757.17C1018.02 759.76 960.373 759.4 900.312 758.23C845.542 757.17 793.242 755.36 739.102 750.88C723.042 749.55 706.872 749.65 691.632 753.08C661.932 759.76 651.632 791.82 657.592 819.31C678.182 806.61 698.582 800.07 721.732 797.95C753.942 795 785.542 794.88 818.172 794.35L900.252 793.02C919.422 792.71 1090.02 791.22 1078.46 757.18V757.17ZM695.062 913.31C708.882 909.72 717.212 898.94 722.252 885.72C724.812 879 722.372 872.66 718.122 868.16C720.132 864.86 722.992 857.74 721.342 853.35C717.142 842.22 707.652 834.16 699.342 831.44C679.702 825.01 657.862 837.83 657.902 847.31C657.922 851.35 660.592 857.8 662.422 859.71C665.812 858.13 667.922 856.89 668.872 857.97L673.362 863.09L663.772 868.84C668.682 885.54 669.802 919.86 695.062 913.29V913.31ZM1035.68 1085.09C1039.96 1083.6 1042.86 1077.29 1042.42 1073.1C1041.04 1060.27 1017.02 1061.64 1005.2 1072.73C1003.17 1074.63 1002.75 1081.05 1004.17 1083.13C1010.85 1092.92 1024.39 1089.03 1035.69 1085.09H1035.68ZM1023.34 1096.7C1008.96 1097.98 1003.58 1119 1006.7 1118.81L1015.18 1118.29C1018.27 1118.1 1021.61 1124.16 1021.99 1127.75C1022.36 1131.22 1020.52 1136.82 1016.91 1139.36C1010.1 1144.15 994.132 1136.62 995.292 1128.45C997.662 1111.74 993.882 1097.83 977.402 1091.07C961.002 1084.34 942.762 1090.86 937.482 1109.23C933.512 1123.06 931.782 1139.48 937.482 1153.25C942.402 1165.14 957.203 1167.85 968.812 1164.18C981.373 1160.22 989.032 1149.38 997.322 1139.27C1001.49 1149.43 1006.09 1157.73 1012.51 1160.99C1021.22 1165.41 1031.97 1165.44 1038.82 1158.71C1049.34 1148.37 1054.7 1133.44 1055.61 1118.81C1039.92 1105.43 1040.41 1095.18 1023.33 1096.7H1023.34ZM908.132 1323.27C909.302 1315.21 904.492 1307.81 899.632 1305.57C882.452 1297.64 872.782 1321.92 855.432 1316.77C830.232 1309.29 838.422 1243.86 840.392 1223.17C862.672 1219.02 905.012 1227.89 900.592 1197.3C897.282 1174.4 859.982 1177.88 842.382 1175.59C840.132 1154.9 846.632 1114.6 814.982 1117.36C781.762 1120.25 790.692 1160.85 787.922 1186.04C777.352 1185.85 765.822 1186.35 757.882 1193.68C753.312 1197.9 751.122 1206.63 752.962 1212.13C754.312 1216.17 760.752 1221.81 765.452 1222.42L788.452 1225.4L791.212 1268.94C792.452 1288.49 794.882 1307.56 799.612 1326.32C805.182 1348.44 823.252 1362.89 846.362 1361.99C868.452 1361.12 904.652 1347.51 908.152 1323.27H908.132ZM1214.65 1317.45C1230.37 1291.52 1234.72 1261.36 1227.72 1232.69C1218.46 1194.76 1186.79 1166.01 1148.48 1162.85C1111.37 1159.79 1078.92 1180.1 1067.15 1214.87C1057.59 1243.13 1053.88 1273.3 1062.21 1302.5C1071.39 1334.66 1101.66 1355.18 1133.16 1358.8C1165.35 1362.5 1197.12 1346.36 1214.65 1317.44V1317.45ZM578.342 1307.08C578.142 1333.68 594.202 1352.5 618.322 1358.2C644.352 1364.35 667.852 1355.83 685.772 1334.54L703.542 1359.01C707.722 1364.77 717.812 1366.78 723.812 1364.42C729.423 1362.21 734.922 1353.8 734.402 1346C731.542 1302.38 727.302 1260.35 721.402 1216.95C718.972 1199.09 709.912 1181.04 692.822 1174.1C671.312 1165.36 647.452 1164.79 625.012 1169.36C598.752 1174.7 578.712 1199.05 585.092 1225.73C586.902 1233.3 598.692 1234.81 604.872 1233.91C611.052 1233.01 616.612 1228.96 621.502 1223.3C632.622 1210.44 652.652 1203.71 667.342 1215.28C678.842 1224.34 680.172 1247.66 668.382 1256.67C656.822 1249.88 644.992 1244.57 631.592 1247.35C597.212 1254.48 578.612 1269.77 578.332 1307.07L578.342 1307.08ZM139.172 1315.79C111.792 1319.99 89.6024 1301.64 87.4324 1275.14C86.1124 1258.95 90.9624 1242 102.062 1230.04C111.352 1220.02 127.042 1216.18 138.572 1223.95C145.092 1228.34 151.862 1234.74 158.742 1237.34C169.342 1241.34 179.282 1234.34 184.062 1227.08C199.682 1203.33 165.992 1173.18 141.842 1168.8C113.442 1163.66 86.0624 1173.79 64.0424 1192.64C29.1424 1222.52 14.5024 1271.75 26.1224 1316.19C30.0124 1331.06 40.0425 1341.86 52.2725 1350.24C111.632 1390.94 188.292 1349.22 181.412 1326.25C180.152 1322.04 174.752 1314.75 169.192 1313.11C160.372 1310.51 149.682 1314.19 139.172 1315.8V1315.79ZM1382.51 1287.02L1379.6 1344.2C1379.16 1352.85 1383.26 1360.5 1391.52 1363.19C1409.69 1369.09 1428.55 1358.3 1433.14 1338.43C1441.15 1303.71 1439.61 1266.01 1428.8 1231.99C1416.95 1194.72 1381.9 1173.35 1344.08 1180.23C1333.25 1182.2 1324.66 1188.81 1316.51 1196.09C1315.17 1186.3 1313.17 1175.97 1303.85 1172.3C1295.49 1169.01 1285.03 1171.91 1278.27 1177.29C1272.12 1182.19 1267.32 1191.58 1267.01 1201.04L1262.55 1337.69C1262.17 1349.28 1269.99 1358 1279.88 1360.93C1287.28 1363.12 1296.43 1362.49 1302.66 1358C1306.89 1354.95 1311.97 1347.51 1312.95 1340.75C1316.2 1318.27 1317.43 1297.02 1318.89 1274.27C1320.3 1252.37 1331.56 1230.13 1353.09 1232.25C1377.26 1234.63 1383.67 1263.86 1382.49 1287.02H1382.51ZM298.372 1241.86C309.322 1234.94 321.482 1236.95 328.552 1245.67C335.622 1254.39 345.002 1256.03 355.052 1250.99C366.382 1245.3 373.292 1235.53 375.512 1223.93C377.732 1212.33 372.332 1201.37 363.442 1192.82C346.502 1176.54 320.852 1172.52 299.532 1181.48C286.422 1186.99 281.542 1195.53 277.312 1211.17C270.222 1199.61 272.722 1169.85 243.732 1173.43C232.462 1174.82 222.082 1185.37 221.312 1199.24C218.682 1247.04 221.382 1295.02 225.312 1342.79C226.592 1358.38 237.402 1367.08 252.392 1366.5C298.572 1364.72 265.302 1316.68 281.362 1262.94C283.792 1254.8 291.132 1246.46 298.372 1241.88V1241.86ZM442.082 1295.15L480.202 1288.12C510.462 1282.54 545.782 1265.72 546.722 1231.05C547.212 1213.02 538.922 1197.48 522.622 1186.95C489.352 1165.45 441.352 1171.78 416.302 1203.85C398.042 1227.23 392.452 1256.87 392.272 1286.03C392.082 1317.38 409.552 1344.3 438.432 1356.27C493.652 1379.16 558.182 1344.01 540.632 1319.94C519.422 1290.85 459.632 1347.86 442.072 1295.15H442.082ZM1012.31 1359.39C1018.72 1354.53 1020.54 1342.37 1021.6 1335.42C1027.48 1296.88 1028.63 1259.32 1025.9 1220.42C1024.46 1199.98 1014.71 1178.87 993.132 1178.58C965.562 1178.21 958.222 1209.29 954.932 1232.71C951.252 1258.94 941.022 1342.19 964.552 1358.14C977.332 1366.81 998.773 1369.67 1012.31 1359.4V1359.39ZM198.352 1245.59C144.432 1283 138.052 1231.93 117.712 1245.98C105.902 1254.14 103.012 1270.9 109.982 1283.44C116.142 1294.53 132.162 1300.25 145.802 1295.25C167.372 1287.35 188.002 1294.58 200.142 1314.74C201.922 1290.38 201.642 1268.85 198.352 1245.59ZM557.192 1307.38L561.892 1264.74C554.012 1274.25 544.492 1283.87 534.862 1292.75L557.192 1307.38ZM1188.19 1123.16C1193.31 1118.52 1197.62 1110.16 1191.71 1102.59C1187.74 1097.5 1180.13 1094.42 1173.17 1095C1167.8 1095.44 1162.06 1100.57 1156.5 1104.55C1152.36 1107.52 1116.76 1129.29 1129.93 1134.96C1137.04 1138.02 1153.32 1119.54 1164.84 1120.91C1173.46 1126.59 1180.35 1130.26 1188.18 1123.16H1188.19ZM646.012 1274.83C637.932 1276.39 628.922 1282.98 626.512 1292.28C623.872 1302.47 626.912 1313.42 636.762 1317.11C647.092 1320.98 657.502 1317.71 665.172 1310.15C670.612 1304.78 677.772 1293.99 672.592 1284.6C667.412 1275.21 655.142 1273.05 646.002 1274.82L646.012 1274.83ZM1182.61 1251.94C1183.61 1274.14 1175.51 1305.22 1150.68 1309.13C1131.26 1312.19 1112.45 1298.33 1107.6 1278.94C1104.56 1266.79 1104.78 1254.04 1107.87 1241.82C1114.17 1216.89 1143.08 1201.75 1165.84 1214.81C1178.47 1222.05 1182.01 1238.58 1182.61 1251.95V1251.94ZM1161.43 1280.77C1172.26 1261.62 1164.74 1230.3 1147.35 1231.87C1143.58 1232.21 1137.28 1236.67 1135.6 1240.94C1128.57 1258.78 1131 1288.63 1147.17 1288.62C1151.61 1288.62 1158.83 1285.39 1161.44 1280.77H1161.43ZM487.122 1247.13C473.082 1253.08 458.112 1255.51 442.632 1251.53C441.812 1238.85 447.882 1227.1 457.562 1219.11C468.712 1209.91 486.722 1210.45 495.822 1222.3C502.232 1230.65 496.122 1243.32 487.122 1247.13ZM476.742 1235.01L469.182 1234.11C467.962 1233.96 468.403 1238.31 468.562 1240.31L476.742 1235.01ZM978.942 1114.73C977.392 1110.55 970.262 1104.77 965.132 1107.23C955.172 1112 952.352 1127.03 959.202 1135.09C963.252 1139.85 970.802 1136.55 975.022 1131.83C979.642 1126.67 980.982 1120.25 978.942 1114.73Z" fill="white"/>
</mask>
<g mask="url(#mask0_29_35)">
<path d="M1516.66 0.0101318H-56.4675V1641.17H1516.66V0.0101318Z" fill="url(#paint0_linear_29_35)"/>
</g>
<path d="M1144.45 82.9101C1145.49 76.1801 1174.58 78.3401 1197.28 97.7101C1219.98 117.08 1223.05 147.5 1215.48 148.97C1212.25 149.6 1200.62 128.65 1183.39 114.14C1166.07 99.5602 1143.95 86.1802 1144.46 82.9002L1144.45 82.9101Z" fill="#FEF3C4"/>
<path d="M915.733 56.4402C917.693 64.6602 890.563 72.2202 873.603 73.0102C856.643 73.8002 746.773 67.4002 718.753 69.7502C690.733 72.1002 564.993 80.8402 507.213 109.66C449.433 138.49 431.593 177.55 423.133 195.53C411.653 219.92 385.993 311.61 378.003 352.16C369.263 396.48 362.433 501.74 360.083 507.22C357.733 512.7 354.993 514.26 354.603 507.22C354.213 500.18 366.263 332.3 366.263 332.3C369.823 253.96 386.873 180 419.483 138.13C447.773 101.81 502.233 58.9002 607.383 52.5202C655.263 49.6202 773.293 47.0402 773.293 47.0402C773.293 47.0402 913.773 48.2102 915.723 56.4302L915.733 56.4402Z" fill="#FEF3C4"/>
<path d="M1001.24 658.98C995.702 661.78 986.092 673.19 994.502 678.99C1002.9 684.79 1012.59 682.23 1017.1 676.89C1021.96 671.14 1022.86 659.43 1018.26 656.81C1013.73 654.24 1006.79 656.17 1001.24 658.97V658.98Z" fill="#FFE3B0"/>
<path d="M745.842 507.02C741.092 509.89 786.792 521.86 802.962 519.39C819.132 516.92 844.473 512.61 864.793 508.96C873.953 507.31 927.932 502.33 937.842 502.33C947.752 502.33 1012.97 498.16 1018.19 498.68C1023.41 499.2 1025.49 489.81 1015.06 490.33C1004.63 490.85 931.312 495.13 922.962 495.66C914.612 496.18 848.222 500.16 823.572 502.18C814.482 502.93 750.652 504.12 745.842 507.03V507.02Z" fill="#FEF3C4"/>
<path d="M990.522 1196.68C1001.74 1201.9 990.262 1232.42 976.692 1227.2C963.122 1221.98 970.042 1187.15 990.522 1196.68Z" fill="#FFE3B0"/>
<defs>
<linearGradient id="paint0_linear_29_35" x1="1459.14" y1="1689.43" x2="1.04221" y2="-48.2497" gradientUnits="userSpaceOnUse">
<stop stop-color="#252A63"/>
<stop offset="0.49" stop-color="#272974"/>
<stop offset="0.71" stop-color="#3C2774"/>
<stop offset="1" stop-color="#2A296E"/>
</linearGradient>
</defs>
</svg>
