<svg width="457" height="95" viewBox="0 0 457 95" fill="none" xmlns="http://www.w3.org/2000/svg">
<path d="M10.1425 0.799984H22.0625L31.1825 56.8H22.3825L20.7825 45.68V45.84H10.7825L9.1825 56.8H1.0225L10.1425 0.799984ZM19.7425 38.24L15.8225 10.56H15.6625L11.8225 38.24H19.7425ZM35.4519 0.799984H48.7319C53.2652 0.799984 56.5719 1.86665 58.6519 3.99999C60.7319 6.07998 61.7719 9.30665 61.7719 13.68V15.92C61.7719 18.8 61.2919 21.1467 60.3319 22.96C59.4252 24.7733 58.0119 26.08 56.0919 26.88V27.04C60.4652 28.5333 62.6519 32.4267 62.6519 38.72V43.52C62.6519 47.84 61.5052 51.1467 59.2119 53.44C56.9719 55.68 53.6652 56.8 49.2919 56.8H35.4519V0.799984ZM47.6919 23.6C49.4519 23.6 50.7585 23.1467 51.6119 22.24C52.5185 21.3333 52.9719 19.8133 52.9719 17.68V14.56C52.9719 12.5333 52.5985 11.0667 51.8519 10.16C51.1585 9.25332 50.0385 8.79999 48.4919 8.79999H44.2519V23.6H47.6919ZM49.2919 48.8C50.8385 48.8 51.9852 48.4 52.7319 47.6C53.4785 46.7467 53.8519 45.3067 53.8519 43.28V38.4C53.8519 35.84 53.3985 34.08 52.4919 33.12C51.6385 32.1067 50.1985 31.6 48.1719 31.6H44.2519V48.8H49.2919ZM79.2356 57.6C74.969 57.6 71.7423 56.4 69.5556 54C67.369 51.5467 66.2756 48.0533 66.2756 43.52V40.32H74.5956V44.16C74.5956 47.7867 76.1156 49.6 79.1556 49.6C80.649 49.6 81.769 49.1733 82.5156 48.32C83.3156 47.4133 83.7156 45.9733 83.7156 44C83.7156 41.6533 83.1823 39.6 82.1156 37.84C81.049 36.0267 79.0756 33.8667 76.1956 31.36C72.569 28.16 70.0356 25.28 68.5956 22.72C67.1556 20.1067 66.4356 17.1733 66.4356 13.92C66.4356 9.49332 67.5556 6.07999 69.7956 3.67999C72.0356 1.22665 75.289 -1.52588e-05 79.5556 -1.52588e-05C83.769 -1.52588e-05 86.9423 1.22665 89.0756 3.67999C91.2623 6.07999 92.3556 9.54665 92.3556 14.08V16.4H84.0356V13.52C84.0356 11.6 83.6623 10.2133 82.9156 9.35998C82.169 8.45332 81.0756 7.99999 79.6356 7.99999C76.7023 7.99999 75.2356 9.78665 75.2356 13.36C75.2356 15.3867 75.769 17.28 76.8356 19.04C77.9556 20.8 79.9556 22.9333 82.8356 25.44C86.5156 28.64 89.049 31.5467 90.4356 34.16C91.8223 36.7733 92.5156 39.84 92.5156 43.36C92.5156 47.9467 91.369 51.4667 89.0756 53.92C86.8356 56.3733 83.5556 57.6 79.2356 57.6ZM110.281 57.6C105.961 57.6 102.655 56.3733 100.361 53.92C98.0679 51.4667 96.9212 48 96.9212 43.52V14.08C96.9212 9.59999 98.0679 6.13332 100.361 3.67999C102.655 1.22665 105.961 -1.52588e-05 110.281 -1.52588e-05C114.601 -1.52588e-05 117.908 1.22665 120.201 3.67999C122.495 6.13332 123.641 9.59999 123.641 14.08V43.52C123.641 48 122.495 51.4667 120.201 53.92C117.908 56.3733 114.601 57.6 110.281 57.6ZM110.281 49.6C113.321 49.6 114.841 47.76 114.841 44.08V13.52C114.841 9.83999 113.321 7.99999 110.281 7.99999C107.241 7.99999 105.721 9.83999 105.721 13.52V44.08C105.721 47.76 107.241 49.6 110.281 49.6ZM129.593 0.799984H138.393V48.8H152.873V56.8H129.593V0.799984ZM169.893 57.6C165.626 57.6 162.373 56.4 160.133 54C157.893 51.5467 156.773 48.0533 156.773 43.52V0.799984H165.572V44.16C165.572 46.08 165.946 47.4667 166.693 48.32C167.493 49.1733 168.613 49.6 170.053 49.6C171.493 49.6 172.586 49.1733 173.333 48.32C174.133 47.4667 174.533 46.08 174.533 44.16V0.799984H183.013V43.52C183.013 48.0533 181.893 51.5467 179.653 54C177.413 56.4 174.159 57.6 169.893 57.6ZM196.16 8.79999H186.96V0.799984H214.16V8.79999H204.96V56.8H196.16V8.79999ZM218.421 0.799984H242.421V8.79999H227.221V23.6H239.301V31.6H227.221V48.8H242.421V56.8H218.421V0.799984ZM273.176 57.6C268.909 57.6 265.656 56.4 263.416 54C261.176 51.5467 260.056 48.0533 260.056 43.52V39.12H268.376V44.16C268.376 47.7867 269.896 49.6 272.936 49.6C275.976 49.6 277.496 47.7867 277.496 44.16V31.6C277.496 27.92 275.976 26.08 272.936 26.08C269.896 26.08 268.376 27.92 268.376 31.6V32.08H260.056L261.656 0.799984H284.856V8.79999H269.496L268.776 22.16H268.936C270.589 19.44 273.122 18.08 276.536 18.08C279.736 18.08 282.162 19.1733 283.816 21.36C285.469 23.5467 286.296 26.72 286.296 30.88V43.52C286.296 48.0533 285.176 51.5467 282.936 54C280.696 56.4 277.442 57.6 273.176 57.6ZM311.939 0.799984H323.859L332.979 56.8H324.179L322.579 45.68V45.84H312.579L310.979 56.8H302.819L311.939 0.799984ZM321.539 38.24L317.619 10.56H317.459L313.619 38.24H321.539ZM348.454 57.6C344.188 57.6 340.961 56.4 338.774 54C336.588 51.5467 335.494 48.0533 335.494 43.52V40.32H343.814V44.16C343.814 47.7867 345.334 49.6 348.374 49.6C349.868 49.6 350.988 49.1733 351.734 48.32C352.534 47.4133 352.934 45.9733 352.934 44C352.934 41.6533 352.401 39.6 351.334 37.84C350.268 36.0267 348.294 33.8667 345.414 31.36C341.788 28.16 339.254 25.28 337.814 22.72C336.374 20.1067 335.654 17.1733 335.654 13.92C335.654 9.49332 336.774 6.07999 339.014 3.67999C341.254 1.22665 344.508 -1.52588e-05 348.774 -1.52588e-05C352.988 -1.52588e-05 356.161 1.22665 358.294 3.67999C360.481 6.07999 361.574 9.54665 361.574 14.08V16.4H353.254V13.52C353.254 11.6 352.881 10.2133 352.134 9.35998C351.388 8.45332 350.294 7.99999 348.854 7.99999C345.921 7.99999 344.454 9.78665 344.454 13.36C344.454 15.3867 344.988 17.28 346.054 19.04C347.174 20.8 349.174 22.9333 352.054 25.44C355.734 28.64 358.268 31.5467 359.654 34.16C361.041 36.7733 361.734 39.84 361.734 43.36C361.734 47.9467 360.588 51.4667 358.294 53.92C356.054 56.3733 352.774 57.6 348.454 57.6ZM373.66 8.79999H364.46V0.799984H391.66V8.79999H382.46V56.8H373.66V8.79999ZM395.921 0.799984H408.961C413.494 0.799984 416.801 1.86665 418.881 3.99999C420.961 6.07998 422.001 9.30665 422.001 13.68V17.12C422.001 22.9333 420.081 26.6133 416.241 28.16V28.32C418.374 28.96 419.867 30.2667 420.721 32.24C421.627 34.2133 422.081 36.8533 422.081 40.16V50C422.081 51.6 422.134 52.9067 422.241 53.92C422.347 54.88 422.614 55.84 423.041 56.8H414.081C413.761 55.8933 413.547 55.04 413.441 54.24C413.334 53.44 413.281 52 413.281 49.92V39.68C413.281 37.12 412.854 35.3333 412.001 34.32C411.201 33.3067 409.787 32.8 407.761 32.8H404.721V56.8H395.921V0.799984ZM407.921 24.8C409.681 24.8 410.987 24.3467 411.841 23.44C412.747 22.5333 413.201 21.0133 413.201 18.88V14.56C413.201 12.5333 412.827 11.0667 412.081 10.16C411.387 9.25332 410.267 8.79999 408.721 8.79999H404.721V24.8H407.921ZM440.906 57.6C436.586 57.6 433.28 56.3733 430.986 53.92C428.693 51.4667 427.546 48 427.546 43.52V14.08C427.546 9.59999 428.693 6.13332 430.986 3.67999C433.28 1.22665 436.586 -1.52588e-05 440.906 -1.52588e-05C445.226 -1.52588e-05 448.533 1.22665 450.826 3.67999C453.12 6.13332 454.266 9.59999 454.266 14.08V43.52C454.266 48 453.12 51.4667 450.826 53.92C448.533 56.3733 445.226 57.6 440.906 57.6ZM440.906 49.6C443.946 49.6 445.466 47.76 445.466 44.08V13.52C445.466 9.83999 443.946 7.99999 440.906 7.99999C437.866 7.99999 436.346 9.83999 436.346 13.52V44.08C436.346 47.76 437.866 49.6 440.906 49.6Z" fill="white"/>
<path d="M165.789 86.48H163.949V94.8H160.529V86.48H159.289V83.64H160.529V83.32C160.529 81.9467 160.923 80.9067 161.709 80.2C162.496 79.48 163.649 79.12 165.169 79.12C165.423 79.12 165.609 79.1267 165.729 79.14V82.04C165.076 82 164.616 82.0933 164.349 82.32C164.083 82.5467 163.949 82.9533 163.949 83.54V83.64H165.789V86.48ZM172.476 94.96C171.383 94.96 170.396 94.7267 169.516 94.26C168.65 93.7933 167.963 93.1267 167.456 92.26C166.963 91.3933 166.716 90.38 166.716 89.22C166.716 88.0733 166.97 87.0667 167.476 86.2C167.983 85.32 168.676 84.6467 169.556 84.18C170.436 83.7133 171.423 83.48 172.516 83.48C173.61 83.48 174.596 83.7133 175.476 84.18C176.356 84.6467 177.05 85.32 177.556 86.2C178.063 87.0667 178.316 88.0733 178.316 89.22C178.316 90.3667 178.056 91.38 177.536 92.26C177.03 93.1267 176.33 93.7933 175.436 94.26C174.556 94.7267 173.57 94.96 172.476 94.96ZM172.476 92C173.13 92 173.683 91.76 174.136 91.28C174.603 90.8 174.836 90.1133 174.836 89.22C174.836 88.3267 174.61 87.64 174.156 87.16C173.716 86.68 173.17 86.44 172.516 86.44C171.85 86.44 171.296 86.68 170.856 87.16C170.416 87.6267 170.196 88.3133 170.196 89.22C170.196 90.1133 170.41 90.8 170.836 91.28C171.276 91.76 171.823 92 172.476 92ZM183.551 85.5C183.951 84.8867 184.451 84.4067 185.051 84.06C185.651 83.7 186.317 83.52 187.051 83.52V87.14H186.111C185.257 87.14 184.617 87.3267 184.191 87.7C183.764 88.06 183.551 88.7 183.551 89.62V94.8H180.131V83.64H183.551V85.5ZM207.164 83.52C208.55 83.52 209.65 83.94 210.464 84.78C211.29 85.62 211.704 86.7867 211.704 88.28V94.8H208.304V88.74C208.304 88.02 208.11 87.4667 207.724 87.08C207.35 86.68 206.83 86.48 206.164 86.48C205.497 86.48 204.97 86.68 204.584 87.08C204.21 87.4667 204.024 88.02 204.024 88.74V94.8H200.624V88.74C200.624 88.02 200.43 87.4667 200.044 87.08C199.67 86.68 199.15 86.48 198.484 86.48C197.817 86.48 197.29 86.68 196.904 87.08C196.53 87.4667 196.344 88.02 196.344 88.74V94.8H192.924V83.64H196.344V85.04C196.69 84.5733 197.144 84.2067 197.704 83.94C198.264 83.66 198.897 83.52 199.604 83.52C200.444 83.52 201.19 83.7 201.844 84.06C202.51 84.42 203.03 84.9333 203.404 85.6C203.79 84.9867 204.317 84.4867 204.984 84.1C205.65 83.7133 206.377 83.52 207.164 83.52ZM215.815 82.48C215.215 82.48 214.722 82.3067 214.335 81.96C213.962 81.6 213.775 81.16 213.775 80.64C213.775 80.1067 213.962 79.6667 214.335 79.32C214.722 78.96 215.215 78.78 215.815 78.78C216.402 78.78 216.882 78.96 217.255 79.32C217.642 79.6667 217.835 80.1067 217.835 80.64C217.835 81.16 217.642 81.6 217.255 81.96C216.882 82.3067 216.402 82.48 215.815 82.48ZM217.515 83.64V94.8H214.095V83.64H217.515ZM219.314 89.22C219.314 88.06 219.547 87.0467 220.014 86.18C220.494 85.3133 221.154 84.6467 221.994 84.18C222.847 83.7133 223.821 83.48 224.914 83.48C226.314 83.48 227.481 83.8467 228.414 84.58C229.361 85.3133 229.981 86.3467 230.274 87.68H226.634C226.327 86.8267 225.734 86.4 224.854 86.4C224.227 86.4 223.727 86.6467 223.354 87.14C222.981 87.62 222.794 88.3133 222.794 89.22C222.794 90.1267 222.981 90.8267 223.354 91.32C223.727 91.8 224.227 92.04 224.854 92.04C225.734 92.04 226.327 91.6133 226.634 90.76H230.274C229.981 92.0667 229.361 93.0933 228.414 93.84C227.467 94.5867 226.301 94.96 224.914 94.96C223.821 94.96 222.847 94.7267 221.994 94.26C221.154 93.7933 220.494 93.1267 220.014 92.26C219.547 91.3933 219.314 90.38 219.314 89.22ZM235.523 85.5C235.923 84.8867 236.423 84.4067 237.023 84.06C237.623 83.7 238.29 83.52 239.023 83.52V87.14H238.083C237.23 87.14 236.59 87.3267 236.163 87.7C235.737 88.06 235.523 88.7 235.523 89.62V94.8H232.103V83.64H235.523V85.5ZM245.738 94.96C244.645 94.96 243.658 94.7267 242.778 94.26C241.911 93.7933 241.225 93.1267 240.718 92.26C240.225 91.3933 239.978 90.38 239.978 89.22C239.978 88.0733 240.231 87.0667 240.738 86.2C241.245 85.32 241.938 84.6467 242.818 84.18C243.698 83.7133 244.685 83.48 245.778 83.48C246.871 83.48 247.858 83.7133 248.738 84.18C249.618 84.6467 250.311 85.32 250.818 86.2C251.325 87.0667 251.578 88.0733 251.578 89.22C251.578 90.3667 251.318 91.38 250.798 92.26C250.291 93.1267 249.591 93.7933 248.698 94.26C247.818 94.7267 246.831 94.96 245.738 94.96ZM245.738 92C246.391 92 246.945 91.76 247.398 91.28C247.865 90.8 248.098 90.1133 248.098 89.22C248.098 88.3267 247.871 87.64 247.418 87.16C246.978 86.68 246.431 86.44 245.778 86.44C245.111 86.44 244.558 86.68 244.118 87.16C243.678 87.6267 243.458 88.3133 243.458 89.22C243.458 90.1133 243.671 90.8 244.098 91.28C244.538 91.76 245.085 92 245.738 92ZM252.812 87.76C252.812 86.3733 253.112 85.14 253.712 84.06C254.312 82.9667 255.146 82.12 256.212 81.52C257.292 80.9067 258.512 80.6 259.872 80.6C261.539 80.6 262.966 81.04 264.152 81.92C265.339 82.8 266.132 84 266.532 85.52H262.772C262.492 84.9333 262.092 84.4867 261.572 84.18C261.066 83.8733 260.486 83.72 259.832 83.72C258.779 83.72 257.926 84.0867 257.272 84.82C256.619 85.5533 256.292 86.5333 256.292 87.76C256.292 88.9867 256.619 89.9667 257.272 90.7C257.926 91.4333 258.779 91.8 259.832 91.8C260.486 91.8 261.066 91.6467 261.572 91.34C262.092 91.0333 262.492 90.5867 262.772 90H266.532C266.132 91.52 265.339 92.72 264.152 93.6C262.966 94.4667 261.539 94.9 259.872 94.9C258.512 94.9 257.292 94.6 256.212 94C255.146 93.3867 254.312 92.54 253.712 91.46C253.112 90.38 252.812 89.1467 252.812 87.76ZM284.527 80.76V94.8H281.107V86.38L277.967 94.8H275.207L272.047 86.36V94.8H268.627V80.76H272.667L276.607 90.48L280.507 80.76H284.527ZM292.066 94.94C291.039 94.94 290.119 94.7733 289.306 94.44C288.493 94.1067 287.839 93.6133 287.346 92.96C286.866 92.3067 286.613 91.52 286.586 90.6H290.226C290.279 91.12 290.459 91.52 290.766 91.8C291.073 92.0667 291.473 92.2 291.966 92.2C292.473 92.2 292.873 92.0867 293.166 91.86C293.459 91.62 293.606 91.2933 293.606 90.88C293.606 90.5333 293.486 90.2467 293.246 90.02C293.019 89.7933 292.733 89.6067 292.386 89.46C292.053 89.3133 291.573 89.1467 290.946 88.96C290.039 88.68 289.299 88.4 288.726 88.12C288.153 87.84 287.659 87.4267 287.246 86.88C286.833 86.3333 286.626 85.62 286.626 84.74C286.626 83.4333 287.099 82.4133 288.046 81.68C288.993 80.9333 290.226 80.56 291.746 80.56C293.293 80.56 294.539 80.9333 295.486 81.68C296.433 82.4133 296.939 83.44 297.006 84.76H293.306C293.279 84.3067 293.113 83.9533 292.806 83.7C292.499 83.4333 292.106 83.3 291.626 83.3C291.213 83.3 290.879 83.4133 290.626 83.64C290.373 83.8533 290.246 84.1667 290.246 84.58C290.246 85.0333 290.459 85.3867 290.886 85.64C291.313 85.8933 291.979 86.1667 292.886 86.46C293.793 86.7667 294.526 87.06 295.086 87.34C295.659 87.62 296.153 88.0267 296.566 88.56C296.979 89.0933 297.186 89.78 297.186 90.62C297.186 91.42 296.979 92.1467 296.566 92.8C296.166 93.4533 295.579 93.9733 294.806 94.36C294.033 94.7467 293.119 94.94 292.066 94.94Z" fill="#ACA6B5"/>
</svg>
