<svg width="113" height="113" viewBox="0 0 113 113" fill="none" xmlns="http://www.w3.org/2000/svg">
<path d="M28.8092 19.744C39.8154 28.0856 51.6531 44.9996 56 54.0756C60.3469 44.9996 72.1846 28.0856 83.1908 19.744C91.1323 13.7249 104 9.06786 104 23.8871C104 26.8468 102.319 48.7496 101.333 52.3058C97.9065 64.6682 85.4198 67.8214 74.3122 65.913C93.7277 69.2489 98.6666 80.2987 87.9999 91.3484C67.7419 112.334 58.8835 86.0831 56.6137 79.3566C56.1976 78.1235 56.0029 77.5466 56 78.0372C55.9971 77.5466 55.8024 78.1235 55.3863 79.3566C53.1164 86.0831 44.2581 112.334 24.0001 91.3484C13.3334 80.2987 18.2723 69.2489 37.6878 65.913C26.5802 67.8214 14.0935 64.6682 10.6667 52.3058C9.68084 48.7496 8 26.8468 8 23.8871C8 9.06786 20.8677 13.7249 28.8092 19.744Z" fill="#1185FE"/>
</svg>
