<svg width="113" height="113" viewBox="0 0 113 113" fill="none" xmlns="http://www.w3.org/2000/svg">
<path d="M109 57C109 27.7258 85.2742 4 56 4C26.7258 4 3 27.7258 3 57C3 83.4586 22.3781 105.383 47.7188 109.358V72.3203H34.2617V57H47.7188V45.3234C47.7188 32.0424 55.6273 24.7031 67.7387 24.7031C73.5355 24.7031 79.6016 25.7383 79.6016 25.7383V38.7812H72.9145C66.3309 38.7812 64.2812 42.8701 64.2812 47.0625V57H78.9805L76.6307 72.3203H64.2812V109.358C89.6219 105.383 109 83.4586 109 57Z" fill="#1877F2"/>
<path d="M76.6307 72.3203L78.9805 57H64.2812V47.0625C64.2812 42.8701 66.3309 38.7812 72.9145 38.7812H79.6016V25.7383C79.6016 25.7383 73.5355 24.7031 67.7387 24.7031C55.6273 24.7031 47.7188 32.0424 47.7188 45.3234V57H34.2617V72.3203H47.7188V109.358C50.4205 109.783 53.1844 110 56 110C58.8156 110 61.5795 109.783 64.2812 109.358V72.3203H76.6307Z" fill="white"/>
</svg>
