<svg width="113" height="113" viewBox="0 0 113 113" fill="none" xmlns="http://www.w3.org/2000/svg">
<rect x="15" y="15" width="84" height="83" fill="white"/>
<path fill-rule="evenodd" clip-rule="evenodd" d="M6.5376 6.28748H106.538V106.287H6.5376V6.28748ZM20.7587 20.1953C39.949 20.1953 57.9813 27.6591 71.5338 41.2116C85.0863 54.7641 92.5502 72.7967 92.5504 91.987H78.4307C78.4307 76.5682 72.4355 62.0816 61.5499 51.1958C50.6641 40.31 36.1775 34.315 20.7587 34.315V20.1953ZM20.6123 44.089V58.2087C39.2376 58.2087 54.3906 73.3615 54.3906 91.9872H68.5103C68.5103 65.576 47.0235 44.089 20.6123 44.089ZM40.751 82.2666C40.751 87.8518 36.2232 92.3795 30.638 92.3795C25.0527 92.3795 20.525 87.8518 20.525 82.2666C20.525 76.6813 25.0527 72.1536 30.638 72.1536C36.2232 72.1536 40.751 76.6813 40.751 82.2666Z" fill="#F78422"/>
</svg>
