<svg width="113" height="113" viewBox="0 0 113 113" fill="none" xmlns="http://www.w3.org/2000/svg">
<g clip-path="url(#clip0_211_1475)">
<g clip-path="url(#clip1_211_1475)">
<path d="M60.4116 30.0954C59.3632 30.4993 59.083 30.9187 59.0742 31.7287V75.8428C59.0963 76.6925 59.745 77.401 60.5748 77.4849C60.6102 77.4871 98.8559 77.5068 99.1031 77.5068C102.789 77.5057 106.324 76.0409 108.93 73.4344C111.537 70.8279 113.002 67.2931 113.003 63.607C113.002 61.3164 112.436 59.0615 111.353 57.0426C110.271 55.0238 108.707 53.3036 106.799 52.0349C104.892 50.7663 102.701 49.9885 100.421 49.7706C98.1405 49.5528 95.8417 49.9017 93.7288 50.7863C92.6253 38.2614 82.12 28.4335 69.306 28.4335C66.172 28.4335 63.1151 29.0516 60.4159 30.0977M54.7065 33.2206L54.0774 64.5318L54.7065 75.898C54.7286 76.7279 55.4038 77.412 56.2381 77.412C56.6417 77.408 57.0278 77.2462 57.3136 76.9611C57.5994 76.6761 57.7624 76.2906 57.7676 75.887V75.898L58.4516 64.5318L57.7676 33.2184C57.7455 32.3798 57.0702 31.6956 56.2381 31.6956C55.8333 31.699 55.4461 31.8612 55.1596 32.1473C54.8732 32.4333 54.7105 32.8203 54.7065 33.225M50.0562 35.8249L49.5176 64.5229C49.5176 64.545 50.0562 76.0613 50.0562 76.0613C50.0652 76.4377 50.2198 76.796 50.4872 77.061C50.7547 77.3259 51.1143 77.477 51.4908 77.4826C51.8684 77.4769 52.2289 77.3249 52.4965 77.0585C52.7641 76.7921 52.918 76.4322 52.9254 76.0547L53.53 64.5339L52.9254 35.8204C52.9174 35.4433 52.7635 35.084 52.496 34.8181C52.2284 34.5522 51.868 34.4003 51.4908 34.3947C50.7139 34.3947 50.0716 35.059 50.0562 35.8249ZM36.152 38.8308L35.4413 64.5207L36.1542 76.3172C36.1762 76.9485 36.6727 77.4473 37.2973 77.4473C37.9219 77.4473 38.4229 76.9464 38.445 76.3129V76.3063L39.2462 64.5207L38.445 38.8308C38.4229 38.1687 37.9219 37.692 37.2973 37.692C36.9948 37.6926 36.7049 37.8126 36.4904 38.0258C36.2759 38.2391 36.1543 38.5284 36.152 38.8308ZM40.749 39.4886L40.096 64.5252L40.7514 76.2069C40.7735 76.8911 41.312 77.4385 41.994 77.4385C42.6759 77.4385 43.2145 76.8934 43.2343 76.2026V76.2092L43.9693 64.5252L43.2343 39.4886C43.2123 38.7956 42.6715 38.2527 41.994 38.2527C41.3164 38.2527 40.7645 38.7978 40.749 39.4886ZM31.5901 39.6651L30.8174 64.5207L31.5901 76.388C31.5963 76.6628 31.7091 76.9244 31.9047 77.1175C32.1003 77.3107 32.3634 77.4203 32.6383 77.423C32.914 77.4202 33.1776 77.31 33.3733 77.1159C33.569 76.9218 33.6815 76.6591 33.6866 76.3835L34.5541 64.5207L33.6866 39.6629C33.6646 39.0803 33.2011 38.6257 32.6383 38.6257C32.3623 38.6285 32.0984 38.7389 31.9026 38.9335C31.7068 39.1281 31.5946 39.3914 31.5901 39.6674M45.384 40.4045L44.7881 64.5273L45.384 76.1363C45.4061 76.8757 45.9886 77.4605 46.7235 77.4605C47.4585 77.4605 48.0433 76.8779 48.0587 76.1297V76.1385L48.7298 64.5296L48.0587 40.4066C48.0553 40.0538 47.9135 39.7165 47.6638 39.4672C47.414 39.2179 47.0764 39.0765 46.7235 39.0736C45.9886 39.0736 45.3994 39.6585 45.384 40.4045ZM27.0655 41.5764C27.0655 41.5786 26.24 64.5163 26.24 64.5163L27.0655 76.507C27.0876 77.0323 27.5069 77.4473 28.019 77.4473C28.2686 77.4429 28.5069 77.3425 28.6844 77.167C28.862 76.9915 28.9651 76.7544 28.9724 76.5049L29.9059 64.5163L28.9724 41.5764C28.9651 41.3269 28.862 41.0898 28.6844 40.9144C28.5069 40.7389 28.2686 40.6385 28.019 40.634C27.5069 40.634 27.092 41.049 27.0655 41.5764ZM22.5766 45.8449L21.6937 64.5163L22.5766 76.5799C22.5986 77.0522 22.9738 77.423 23.4306 77.423C23.8875 77.423 24.2603 77.0523 24.2868 76.5778L25.2866 64.5118L24.2868 45.8404C24.2581 45.3681 23.883 44.9929 23.4306 44.9929C22.9782 44.9929 22.5986 45.3681 22.5766 45.8404M13.7086 52.137L12.7109 64.5075L13.7086 76.474C13.7373 76.8448 14.0221 77.1229 14.3708 77.1229C14.7195 77.1229 15.0018 76.8448 15.0327 76.474L16.1629 64.5075L15.0327 52.1327C14.9996 51.7641 14.7173 51.4838 14.3708 51.4838C14.0243 51.4838 13.7351 51.7662 13.7086 52.137ZM9.3298 52.4637C9.3298 52.4659 8.27478 64.5052 8.27478 64.5052L9.3298 76.1055C9.36291 76.4299 9.59897 76.6616 9.89692 76.6616C10.1949 76.6616 10.4268 76.4298 10.4621 76.1098L11.6605 64.5075L10.4643 52.466C10.429 52.146 10.1905 51.9142 9.89692 51.9142C9.60338 51.9142 9.3607 52.1504 9.3298 52.466M18.1248 53.0354L17.187 64.5118L18.1248 76.5778C18.1304 76.7765 18.2126 76.9654 18.3541 77.1051C18.4955 77.2449 18.6852 77.3248 18.884 77.3281C19.2857 77.3281 19.6123 77.0059 19.6432 76.5778L20.7114 64.5097L19.6432 53.0288C19.6101 52.6094 19.2901 52.2871 18.884 52.2871C18.4779 52.2871 18.1513 52.605 18.1248 53.0354ZM4.98633 54.3617C4.98633 54.3639 3.87419 64.5075 3.87419 64.5075L4.98633 74.4326C5.01943 74.6974 5.21804 74.8894 5.45861 74.8894C5.69917 74.8894 5.88906 74.704 5.92658 74.4347L7.18905 64.5075L5.92658 54.3617C5.88244 54.0924 5.6926 53.9049 5.45645 53.9049C5.2203 53.9049 5.01722 54.0969 4.98633 54.3617ZM0.823895 58.2329L-0.00158691 64.5075L0.823895 70.6761C0.857 70.9366 1.04472 71.1176 1.27866 71.1176C1.51261 71.1176 1.69354 70.9366 1.72885 70.6761L2.70871 64.5052L1.72885 58.2285C1.69575 57.9702 1.50819 57.787 1.27866 57.787C1.04913 57.787 0.854793 57.968 0.823895 58.2285" fill="#FF5500"/>
</g>
</g>
<defs>
<clipPath id="clip0_211_1475">
<rect width="113" height="113" fill="white"/>
</clipPath>
<clipPath id="clip1_211_1475">
<rect width="113" height="113" fill="white"/>
</clipPath>
</defs>
</svg>
