<svg width="113" height="113" viewBox="0 0 113 113" fill="none" xmlns="http://www.w3.org/2000/svg">
<path d="M37.3142 97.282C75.0965 97.282 95.7844 65.9487 95.7844 38.8718C95.7844 37.9487 95.7844 37.0769 95.7331 36.2051C99.7372 33.2821 103.228 29.6923 106 25.5385C102.355 27.1282 98.4025 28.2564 94.193 28.7692C98.4538 26.2051 101.688 22.2051 103.279 17.4359C99.3265 19.7949 94.9117 21.4872 90.1889 22.4615C86.4415 18.4615 81.1027 16 75.1478 16C63.8542 16 54.614 25.1795 54.614 36.5128C54.614 38.1026 54.768 39.6923 55.1786 41.2308C38.0842 40.3077 22.9405 32.1538 12.8275 19.6923C11.0308 22.7179 10.0554 26.2564 10.0554 30C10.0554 37.1282 13.6489 43.3846 19.2444 47.0769C15.9076 46.9744 12.7248 46.0513 9.95277 44.5128C9.95277 44.6154 9.95277 44.6667 9.95277 44.7692C9.95277 54.7179 17.037 62.9744 26.4825 64.9231C24.7885 65.3846 22.9405 65.641 21.0924 65.641C19.809 65.641 18.4743 65.4872 17.2423 65.2308C19.8604 73.3846 27.4066 79.3333 36.4415 79.4872C29.4086 84.9744 20.5277 88.2564 10.9281 88.2564C9.28542 88.2564 7.64271 88.1538 6 87.9487C14.8809 93.8974 25.6612 97.282 37.3142 97.282Z" fill="#1DA1F2"/>
</svg>
