<svg width="113" height="113" viewBox="0 0 113 113" fill="none" xmlns="http://www.w3.org/2000/svg">
<rect x="36" y="37" width="41" height="41" fill="white"/>
<path d="M106.784 30.66C105.567 26.0707 101.971 22.457 97.4123 21.2284C89.1491 19 56 19 56 19C56 19 22.8509 19 14.5877 21.2284C10.0285 22.457 6.43295 26.0707 5.21636 30.66C3 38.9834 3 56.3409 3 56.3409C3 56.3409 3 73.6984 5.21636 82.0218C6.43295 86.6111 10.0285 90.2248 14.5877 91.4534C22.8569 93.6818 56 93.6818 56 93.6818C56 93.6818 89.1491 93.6818 97.4123 91.4534C101.971 90.2248 105.567 86.6111 106.784 82.0218C109 73.7044 109 56.3409 109 56.3409C109 56.3409 109 38.9834 106.784 30.66ZM45.1591 72.1024V40.5794L72.8636 56.3409L45.1591 72.1024Z" fill="#FF0000"/>
</svg>
