<svg width="113" height="113" viewBox="0 0 113 113" fill="none" xmlns="http://www.w3.org/2000/svg">
<path d="M55.9782 3C26.6766 3 3 26.7203 3 55.9782C3 78.4339 16.9531 97.6195 36.6618 105.337C36.1823 101.151 35.7898 94.6981 36.8363 90.1198C37.7956 85.9773 43.0279 63.7832 43.0279 63.7832C43.0279 63.7832 41.4583 60.6 41.4583 55.9346C41.4583 48.5657 45.7314 43.0715 51.0511 43.0715C55.5858 43.0715 57.766 46.4726 57.766 50.5277C57.766 55.0626 54.8881 61.8646 53.3619 68.1871C52.0975 73.4631 56.0218 77.7799 61.2105 77.7799C70.6289 77.7799 77.8672 67.8384 77.8672 53.5364C77.8672 40.8478 68.7539 31.9964 55.7166 31.9964C40.6298 31.9964 31.7784 43.2896 31.7784 54.9753C31.7784 59.5102 33.5225 64.3936 35.7025 67.0535C36.1386 67.5768 36.1823 68.0563 36.0515 68.5795C35.659 70.2365 34.7434 73.8556 34.5689 74.5969C34.3508 75.5562 33.7841 75.7742 32.7811 75.2946C26.2407 72.1551 22.1419 62.4752 22.1419 54.7137C22.1419 38.0136 34.2637 22.6652 57.1554 22.6652C75.5125 22.6652 89.8144 35.7462 89.8144 53.2748C89.8144 71.5445 78.3033 86.2389 62.3443 86.2389C56.9811 86.2389 51.923 83.4483 50.2226 80.1346C50.2226 80.1346 47.5626 90.2506 46.9086 92.7359C45.7314 97.3579 42.5047 103.113 40.3245 106.645C45.2953 108.172 50.5277 109 56.0218 109C85.2798 109 109 85.2796 109 56.0217C108.956 26.7203 85.2361 3 55.9782 3Z" fill="white"/>
</svg>
