<svg width="113" height="113" viewBox="0 0 113 113" fill="none" xmlns="http://www.w3.org/2000/svg">
<g clip-path="url(#clip0_211_1312)">
<path d="M56.7766 106H56.7472C42.1256 105.902 30.885 101.08 23.3292 91.6724C16.6162 83.2934 13.147 71.6412 13.0294 57.0392V56.9706C13.147 42.3588 16.6162 30.7164 23.339 22.3374C30.885 12.9196 42.1354 8.098 56.7472 8H56.7766H56.806C68.0172 8.0784 77.3958 10.9596 84.6772 16.5652C91.5274 21.8376 96.349 29.3444 99.0048 38.8896L90.6748 41.2122C86.1668 25.0422 74.7596 16.7808 56.7668 16.6534C44.8892 16.7416 35.9026 20.4754 30.0618 27.747C24.6032 34.558 21.7808 44.3972 21.673 57C21.7808 69.6028 24.6032 79.442 30.0716 86.253C35.9124 93.5344 44.899 97.2682 56.7766 97.3466C67.488 97.2682 74.5734 94.7692 80.4632 88.997C87.186 82.4114 87.0684 74.3264 84.9124 69.4068C83.6482 66.506 81.3452 64.0952 78.2386 62.2626C77.4546 67.78 75.7004 72.2488 72.9956 75.62C69.3794 80.1182 64.254 82.578 57.7664 82.9308C52.8566 83.1954 48.1232 82.039 44.458 79.6576C40.1166 76.845 37.5784 72.5526 37.304 67.5546C37.0394 62.6938 38.97 58.225 42.7332 54.9714C46.3298 51.8648 51.3866 50.042 57.3646 49.699C61.7648 49.454 65.8906 49.65 69.693 50.2772C69.1834 47.249 68.1642 44.8382 66.6354 43.1036C64.5382 40.7124 61.2944 39.4972 57.002 39.4678C56.9628 39.4678 56.9236 39.4678 56.8844 39.4678C53.4348 39.4678 48.7504 40.4184 45.7712 44.8578L38.5976 40.046C42.596 34.1072 49.0836 30.834 56.8844 30.834C56.9432 30.834 57.002 30.834 57.0608 30.834C70.1046 30.9124 77.876 38.8994 78.6502 52.835C79.0912 53.0212 79.5322 53.2172 79.9634 53.4132C86.0492 56.2748 90.4984 60.6064 92.8406 65.9474C96.0942 73.3856 96.398 85.5082 86.5196 95.1808C78.9638 102.57 69.8008 105.912 56.806 106H56.7766ZM60.873 58.2642C59.8832 58.2642 58.8836 58.2936 57.8546 58.3524C50.3576 58.7738 45.683 62.2136 45.9476 67.1038C46.222 72.2292 51.8766 74.6106 57.3156 74.3166C62.3136 74.052 68.8208 72.1018 69.9184 59.1658C67.1548 58.568 64.1266 58.2642 60.873 58.2642Z" fill="white"/>
</g>
<defs>
<clipPath id="clip0_211_1312">
<rect width="86.044" height="98" fill="white" transform="translate(13 8)"/>
</clipPath>
</defs>
</svg>
